<?xml version="1.0" encoding="UTF-8"?>
<svg width="157px" height="131px" viewBox="0 0 157 131" version="1.1" xmlns="http://www.w3.org/2000/svg" xmlns:xlink="http://www.w3.org/1999/xlink">
    <title>CD7C2F02-2A60-46AF-A29C-ACA86029A8DC</title>
    <defs>
        <linearGradient x1="30.6996548%" y1="113.716058%" x2="78.1050784%" y2="-48.440803%" id="linearGradient-1">
            <stop stop-color="#FFFFFF" offset="0%"></stop>
            <stop stop-color="#EEEEEE" offset="100%"></stop>
        </linearGradient>
        <linearGradient x1="33.1230342%" y1="73.4147291%" x2="75.1280727%" y2="189.617801%" id="linearGradient-2">
            <stop stop-color="#FFFFFF" offset="0%"></stop>
            <stop stop-color="#EEEEEE" offset="100%"></stop>
        </linearGradient>
        <linearGradient x1="27.0033275%" y1="-230.15459%" x2="88.2755359%" y2="44.9211197%" id="linearGradient-3">
            <stop stop-color="#FFFFFF" offset="0%"></stop>
            <stop stop-color="#EEEEEE" offset="100%"></stop>
        </linearGradient>
        <linearGradient x1="146.691102%" y1="173.189594%" x2="-94.9908369%" y2="235.659188%" id="linearGradient-4">
            <stop stop-color="#FFFFFF" offset="0%"></stop>
            <stop stop-color="#EEEEEE" offset="100%"></stop>
        </linearGradient>
        <linearGradient x1="-37.0334558%" y1="638.110255%" x2="180.25527%" y2="826.503596%" id="linearGradient-5">
            <stop stop-color="#FFFFFF" offset="0%"></stop>
            <stop stop-color="#EEEEEE" offset="100%"></stop>
        </linearGradient>
        <linearGradient x1="-28.7411655%" y1="460.930144%" x2="167.903613%" y2="765.28618%" id="linearGradient-6">
            <stop stop-color="#FFFFFF" offset="0%"></stop>
            <stop stop-color="#EEEEEE" offset="100%"></stop>
        </linearGradient>
    </defs>
    <g id="Vocabulary-Explorer" stroke="none" stroke-width="1" fill="none" fill-rule="evenodd">
        <g id="Type" transform="translate(-817.000000, -715.000000)">
            <g id="Group-3" transform="translate(727.000000, 712.000000)">
                <g id="Compulsions" transform="translate(90.000000, 3.000000)">
                    <g id="COMP-BG" fill-rule="nonzero">
                        <path d="M6.02156908,83.8084279 C4.96686358,103.116964 42.7292899,142.380299 89.2695879,127.839372 C110.925074,121.087621 109.085009,109.868715 125.543519,95.0840232 C135.353414,86.2715984 149.450177,79.6048814 153.3713,66.7958278 C156.759399,55.7413226 154.681176,43.8563122 148.809415,36.1238275 C135.591573,18.7399095 108.940413,6.8350577 82.6748433,34.2275547 C56.409274,61.6200517 8.72354313,34.0178026 6.02156908,83.8084279 Z" id="Path" fill="url(#linearGradient-1)"></path>
                        <path d="M17.9891825,41.3041545 C21.6639867,47.8672933 29.7173414,48.7700087 42.6146271,47.5209685 C52.3138401,46.5813496 61.1589094,45.8546352 70.86096,40.5632466 C77.0573766,37.1318481 82.5231802,32.5213374 86.9506433,26.9912888 C91.2071732,21.7254486 97.1351006,15.7130231 94.2264718,9.73750098 C90.2281713,1.53357753 67.1123759,-5.37872475 44.6634369,5.92225077 C20.0067777,18.3416851 14.3938335,34.8772747 17.9891825,41.3041545 Z" id="Path" fill="url(#linearGradient-2)"></path>
                        <path d="M111.049194,122.181295 C119.452929,110.228626 128.057151,97.5432377 139.326176,91.2910725 C150.948837,84.8380459 153.090147,88.8156677 153.894878,95.1385587 C154.699609,101.46145 151.11034,116.441185 135.238474,124.962235 C119.366609,133.483286 103.191228,133.361637 111.049194,122.181295 Z" id="Path" fill="url(#linearGradient-3)"></path>
                        <path d="M8.03217267,53.8486841 C11.8977805,54.7139777 16,51.5858186 16,51.5858186 C16,51.5858186 13.8191814,47.027332 9.95357361,46.1538496 C6.08796579,45.2803671 2,48.4112558 2,48.4112558 C2,48.4112558 4.1694156,52.9697424 8.03217267,53.8486841 Z" id="Path" fill="url(#linearGradient-4)"></path>
                        <path d="M113.466061,13.4156939 C109.326629,16.3494018 103,14.310117 103,14.310117 C103,14.310117 103.391607,7.50951971 107.533939,4.58177462 C111.676272,1.65402954 118,3.68735148 118,3.68735148 C118,3.68735148 117.608393,10.4879488 113.466061,13.4186753 L113.466061,13.4156939 Z" id="Path" fill="url(#linearGradient-5)"></path>
                        <path d="M44.6081393,30.4673419 C40.2572395,34.840822 32.1179351,33.9189202 32.1179351,33.9189202 C32.1179351,33.9189202 31.0407569,25.9050385 35.3972817,21.5343352 C39.7538064,17.1636319 47.8818609,18.0799801 47.8818609,18.0799801 C47.8818609,18.0799801 48.959039,26.0938618 44.6081393,30.4673419 Z" id="Path" fill="url(#linearGradient-6)"></path>
                        <ellipse id="Oval" fill="#6C63FF" cx="24.5" cy="91" rx="3.5" ry="3"></ellipse>
                        <ellipse id="Oval" fill="#6C63FF" cx="58.5" cy="127" rx="3.5" ry="4"></ellipse>
                        <ellipse id="Oval" fill="#6C63FF" cx="136" cy="106" rx="5" ry="4"></ellipse>
                        <circle id="Oval" fill="#6C63FF" cx="142.5" cy="54.5" r="1.5"></circle>
                        <circle id="Oval" fill="#6C63FF" cx="30" cy="36" r="3"></circle>
                        <circle id="Oval" fill="#E1E4E5" cx="29" cy="117" r="3"></circle>
                        <circle id="Oval" fill="#E1E4E5" cx="154" cy="81" r="3"></circle>
                        <circle id="Oval" fill="#E1E4E5" cx="123" cy="120" r="1"></circle>
                        <circle id="Oval" fill="#E1E4E5" cx="46" cy="20" r="1"></circle>
                        <circle id="Oval" fill="#E1E4E5" cx="137" cy="70" r="1"></circle>
                        <circle id="Oval" fill="#E1E4E5" cx="134.5" cy="39.5" r="1.5"></circle>
                        <circle id="Oval" fill="#E1E4E5" cx="23" cy="72" r="1"></circle>
                        <circle id="Oval" fill="#E1E4E5" cx="82" cy="10" r="3"></circle>
                        <path d="M2.57715859,71.177665 L2.54022026,71.177665 C2.31859031,74.2988832 0,74.3472081 0,74.3472081 C0,74.3472081 2.55726872,74.395533 2.55726872,78 C2.55726872,74.395533 5.11453744,74.3472081 5.11453744,74.3472081 C5.11453744,74.3472081 2.79594714,74.2988832 2.57715859,71.177665 Z M124.629912,22 L124.564559,22 C124.186652,27.4607107 120.19163,27.5431472 120.19163,27.5431472 C120.19163,27.5431472 124.595815,27.631269 124.595815,33.9390863 C124.595815,27.631269 129,27.5431472 129,27.5431472 C129,27.5431472 125.022026,27.4607107 124.629912,22 L124.629912,22 Z" id="Shape" fill="#E1E4E5"></path>
                    </g>
                    <path d="M114.207154,55.571134 C113.890785,56.0643111 113.436014,56.4335912 112.910329,56.6242592 L112.910329,56.6244447 C112.910329,56.6244447 112.835305,56.6533787 112.835305,56.7014167 L112.835305,57.3485378 C112.835305,57.6410314 112.691251,57.9108971 112.457614,58.0570511 C112.223805,58.2032052 111.935869,58.2032052 111.702231,58.0570511 C111.468422,57.9108971 111.32454,57.6408459 111.32454,57.3485378 L111.32454,56.699191 C111.327966,56.3377008 111.43622,55.9864118 111.633887,55.6948456 C111.831383,55.4030939 112.108356,55.185903 112.425925,55.0736909 C112.644832,54.9939367 112.834106,54.8401782 112.965827,54.6344868 C113.097376,54.4289809 113.164007,54.1830414 113.156299,53.9330216 C113.14174,53.6305124 113.021324,53.3454378 112.819546,53.1356659 C112.61794,52.9255231 112.349873,52.8068193 112.070159,52.8027388 C111.869066,52.8040372 111.671913,52.8663567 111.501995,52.9830202 C111.331905,53.0996838 111.195902,53.2658691 111.109059,53.4626578 C111.024785,53.6625995 110.869769,53.8172854 110.678611,53.8920317 C110.487796,53.9665925 110.277282,53.955093 110.094175,53.8595736 C109.91141,53.7642396 109.771467,53.5932319 109.706549,53.3849439 C109.641459,53.1768413 109.656532,52.9488929 109.748172,52.7528462 C109.956287,52.2804421 110.282934,51.8813006 110.690944,51.6006774 C111.098953,51.3202397 111.571538,51.1698197 112.054914,51.1666667 L112.069988,51.1666667 L112.070159,51.1690778 C112.743151,51.171489 113.389252,51.4560072 113.872799,51.962724 C114.356518,52.4694408 114.640343,53.1590357 114.66518,53.8872093 C114.684022,54.4872199 114.523353,55.0777713 114.207154,55.571134 L114.207154,55.571134 Z M112.373637,60.8736371 C112.185954,61.0610948 111.931724,61.1666667 111.666441,61.1666667 C111.401384,61.1666667 111.147154,61.0610948 110.959471,60.8736371 C110.772013,60.686405 110.666667,60.4319498 110.666667,60.1666667 C110.666667,59.9013836 110.772013,59.6471539 110.959471,59.4594706 C111.147154,59.2720129 111.401384,59.1666667 111.666441,59.1666667 L111.666216,59.1666667 L111.671629,59.1693736 C111.934431,59.1738853 112.185052,59.280585 112.37093,59.4666892 C112.556583,59.6527934 112.662381,59.903865 112.666667,60.1666667 C112.666667,60.4319498 112.561095,60.686405 112.373637,60.8736371 L112.373637,60.8736371 Z M107.019693,55.8244455 C106.576539,56.4572417 105.940063,56.9312737 105.20474,57.1762887 C105.20474,57.1762887 105.098893,57.2133279 105.098893,57.2757555 L105.098893,58.1147886 C105.098893,58.4905711 104.897174,58.8378352 104.569488,59.0258134 C104.242153,59.2136177 103.838888,59.2136177 103.511378,59.0258134 C103.184042,58.8378352 102.982147,58.4905711 102.982147,58.1147886 L102.982147,57.2757555 C102.987046,56.8104181 103.138555,56.3582966 103.415329,55.9828619 C103.692103,55.6076011 104.080497,55.3281552 104.5254,55.1838241 C104.828942,55.0801839 105.091196,54.8828155 105.273846,54.6205851 C105.456496,54.3583546 105.54992,54.0448257 105.540473,53.7260801 C105.519653,53.3370817 105.35065,52.9705155 105.068277,52.7006337 C104.785904,52.430752 104.410632,52.2775524 104.018914,52.2721617 C103.738116,52.274944 103.463791,52.3559781 103.22708,52.5058737 C102.99037,52.6561172 102.800722,52.8691359 102.680005,53.1209328 C102.515725,53.4598501 102.182266,53.6859108 101.805069,53.7140815 C101.427523,53.7422521 101.063797,53.5681853 100.85088,53.2574388 C100.637614,52.9468661 100.607347,52.5465646 100.771452,52.2078213 C101.063447,51.5986745 101.522696,51.0839516 102.09619,50.7227761 C102.669683,50.3616006 103.334151,50.1689273 104.012965,50.1666667 L104.034485,50.1666667 C104.976602,50.1718835 105.880055,50.5387974 106.55642,51.1902002 C107.232785,51.8419507 107.629926,52.7281088 107.664917,53.6636525 C107.68906,54.433998 107.462847,55.1918232 107.019693,55.8244455 L107.019693,55.8244455 Z M103.373859,61.873695 C103.186272,62.0612824 102.931771,62.1666667 102.666584,62.1666667 C102.401562,62.1666667 102.147061,62.0612824 101.959474,61.873695 C101.772051,61.6861077 101.666667,61.4319359 101.666667,61.1665845 C101.666667,60.9013975 101.772051,60.6470612 101.959474,60.4596383 C102.147061,60.272051 102.401562,60.1666667 102.666584,60.1666667 C102.931771,60.1666667 103.186272,60.272051 103.373859,60.4596383 C103.561118,60.6470612 103.666667,60.9013975 103.666667,61.1665845 C103.666667,61.4319359 103.561118,61.6861077 103.373859,61.873695 L103.373859,61.873695 Z M101.804351,96.1666667 L70.5288417,96.1666667 C68.7515068,96.1666667 67.395762,94.6220296 67.712879,92.9421503 C69.2960606,84.5393816 76.9551313,78.1666667 86.1661342,78.1666667 C95.3767673,78.1666667 103.036763,84.5393816 104.620129,92.9421503 L104.620499,92.9421503 C104.937431,94.6220296 103.581871,96.1666667 101.804351,96.1666667 L101.804351,96.1666667 Z M67.9596142,60.4596383 C68.1470218,60.272051 68.4015015,60.1666667 68.6665023,60.1666667 C68.9318319,60.1666667 69.1861472,60.272051 69.3737191,60.4596383 C69.5611266,60.6470612 69.6666667,60.9013975 69.6666667,61.1665845 C69.6666667,61.4319359 69.5611266,61.6861077 69.3737191,61.873695 C69.1861472,62.0612824 68.9318319,62.1666667 68.6665023,62.1666667 C68.4015015,62.1666667 68.1470218,62.0612824 67.9596142,61.873695 C67.7720423,61.6861077 67.6666667,61.4319359 67.6666667,61.1665845 C67.6666667,60.9013975 67.7720423,60.6470612 67.9596142,60.4596383 L67.9596142,60.4596383 Z M66.6797443,53.1209328 C66.5156413,53.4598501 66.1823617,53.6859108 65.8049948,53.7140815 C65.4276278,53.7422521 65.063907,53.5681853 64.850643,53.2574388 C64.6375541,52.9468661 64.6074627,52.5465646 64.7713907,52.2078213 C65.0635571,51.5986745 65.5228006,51.0839516 66.0962864,50.7227761 C66.6697722,50.3616006 67.3342319,50.1689273 68.0130376,50.1666667 L68.0345564,50.1666667 C68.9763118,50.1718835 69.8797531,50.5387974 70.5562844,51.1902002 C71.2326407,51.8419507 71.629777,52.7281088 71.664767,53.6636525 L71.664942,53.6636525 C71.6889101,54.433998 71.4625249,55.1918232 71.0195518,55.8244455 C70.5764036,56.4572417 69.9399359,56.9312737 69.2047964,57.1762887 C69.2047964,57.1762887 69.0987767,57.2133279 69.0987767,57.2757555 L69.0987767,58.1147886 C69.0987767,58.4905711 68.8970595,58.8378352 68.5695532,59.0258134 C68.242047,59.2136177 67.8387875,59.2136177 67.5112812,59.0258134 C67.183775,58.8378352 66.9822327,58.4905711 66.9822327,58.1147886 L66.9822327,57.2757555 C66.9869564,56.8104181 67.138463,56.3582966 67.4154087,55.9828619 C67.6921795,55.6076011 68.0802183,55.3281552 68.5252909,55.1838241 C68.829004,55.0801839 69.0912539,54.8828155 69.2737266,54.6205851 C69.4565493,54.3583546 69.5497976,54.0448257 69.5403503,53.7260801 C69.5195312,53.3370817 69.3507046,52.9705155 69.0683354,52.7006337 C68.7857913,52.430752 68.4106987,52.2775524 68.0188109,52.2721617 C67.7380163,52.274944 67.4638698,52.3559781 67.2269876,52.5058737 C66.9904554,52.6561172 66.8006347,52.8691359 66.6797443,53.1209328 L66.6797443,53.1209328 Z M62.2070221,55.5702396 C61.8908327,56.0635867 61.4359037,56.4329941 60.9102345,56.6239133 L60.9102345,56.6239133 C60.9102345,56.6239133 60.8352124,56.6530428 60.8352124,56.7009118 L60.8352124,57.3484415 C60.8352124,57.6408503 60.6911629,57.9109945 60.4575322,58.0570134 C60.2237302,58.2032178 59.9358026,58.2032178 59.7020005,58.0570134 C59.4683698,57.9109945 59.3243204,57.6408503 59.3243204,57.3484415 L59.3243204,56.7009118 C59.3279173,56.3391115 59.4361685,55.9877014 59.6338297,55.6960348 C59.8313196,55.4041826 60.1081138,55.1869169 60.4256734,55.074666 C60.6445738,54.99507 60.8338421,54.8410729 60.9655591,54.6354962 C61.0972761,54.4299194 61.1640767,54.1837097 61.1560264,53.9337892 C61.1414673,53.6311758 61.021055,53.346003 60.8194543,53.1359733 C60.6178536,52.9259436 60.3497948,52.8068278 60.0700888,52.803117 C59.8688307,52.8038592 59.6716834,52.8663857 59.5017701,52.9830895 C59.3316856,53.0999788 59.1956864,53.2662214 59.109017,53.4632634 C59.0247455,53.6630884 58.8695626,53.8180131 58.6785815,53.8925997 C58.4876003,53.9673717 58.2770929,53.9556828 58.0941621,53.8603159 C57.9112313,53.7647636 57.7714639,53.593697 57.7065475,53.3855227 C57.6414597,53.1771628 57.6565327,52.9493215 57.7481694,52.7532072 C57.9562789,52.2806404 58.2829165,51.8811758 58.6909139,51.6004559 C59.0989113,51.3199215 59.5714825,51.1694497 60.0548446,51.1666667 L60.0700888,51.1666667 C60.7430618,51.1692642 61.388972,51.4538804 61.8726767,51.9605863 C62.3563813,52.4674777 62.6401981,53.1573102 62.6652055,53.8857347 C62.6838754,54.4859521 62.5232115,55.0768925 62.2070221,55.5702396 L62.2070221,55.5702396 Z M61.3736371,60.8738297 C61.1861794,61.0615341 60.9319498,61.1666667 60.6666667,61.1666667 C60.4016091,61.1666667 60.1471539,61.0615341 59.9596962,60.8738297 C59.7722385,60.6863508 59.6666667,60.4320925 59.6666667,60.1667795 C59.6666667,59.9014664 59.7722385,59.6469825 59.9596962,59.4595037 C60.1471539,59.2720248 60.4016091,59.1666667 60.6666667,59.1666667 L60.671855,59.1666667 C60.9351079,59.1711788 61.1861794,59.2783418 61.3718325,59.4649182 C61.5579367,59.6517202 61.6635085,59.9032713 61.6666667,60.1667795 C61.6666667,60.4320925 61.5613204,60.6863508 61.3736371,60.8738297 L61.3736371,60.8738297 Z M75.6664411,59.1666667 L75.671855,59.1693736 C75.9346567,59.1738853 76.1852771,59.280585 76.3709301,59.4666892 C76.5568088,59.6527934 76.6626062,59.903865 76.6666667,60.1666667 C76.6666667,60.4319498 76.5610948,60.686405 76.3736371,60.8736371 C76.1861794,61.0610948 75.9319498,61.1666667 75.6666667,61.1666667 C75.4013836,61.1666667 75.1469283,61.0610948 74.9594706,60.8736371 C74.7720129,60.686405 74.6666667,60.4319498 74.6666667,60.1666667 C74.6666667,59.9013836 74.7720129,59.6471539 74.9594706,59.4594706 C75.1469283,59.2720129 75.4013836,59.1666667 75.6666667,59.1666667 L75.6664411,59.1666667 Z M73.7482916,52.7528462 C73.9562319,52.2804421 74.2828728,51.8813006 74.6908742,51.6006774 C75.0988757,51.3202397 75.5716229,51.1698197 76.0546473,51.1666667 L76.0700629,51.1666667 L76.0702342,51.1690778 C76.7432139,51.171489 77.3889592,51.4560072 77.87284,51.962724 C78.3565495,52.4694408 78.6403691,53.1590357 78.6652055,53.8872093 C78.6838756,54.4872199 78.52321,55.0777713 78.2071888,55.571134 C77.890825,56.0643111 77.4360627,56.4335912 76.910217,56.6242592 L76.910217,56.6244447 C76.910217,56.6244447 76.8353654,56.6533787 76.8353654,56.7014167 L76.8353654,57.3485378 C76.8353654,57.6410314 76.6913145,57.9108971 76.4576814,58.0570511 C76.2238771,58.2032052 75.9359466,58.2032052 75.7021422,58.0570511 C75.4683379,57.9108971 75.3244583,57.6408459 75.3244583,57.3485378 L75.3244583,56.699191 C75.327884,56.3377008 75.4361363,55.9864118 75.6337994,55.6948456 C75.8312913,55.4030939 76.1082595,55.185903 76.4258224,55.0736909 C76.6447249,54.9939367 76.8339951,54.8401782 76.9657134,54.6344868 C77.0972605,54.4289809 77.1640617,54.1830414 77.1561826,53.9330216 C77.1416234,53.6305124 77.0212098,53.3454378 76.8196071,53.1356659 C76.6176618,52.9255231 76.349943,52.8068193 76.0702342,52.8027388 C75.8688028,52.8040372 75.671996,52.8663567 75.5019098,52.9830202 C75.3319949,53.0996838 75.1958231,53.2658691 75.1091528,53.4626578 C75.0248804,53.6625995 74.8695247,53.8172854 74.678713,53.8920317 C74.4877299,53.9665925 74.2770491,53.955093 74.0942878,53.8595736 C73.9113551,53.7642396 73.7715864,53.5932319 73.7063267,53.3849439 C73.6415809,53.1768413 73.6564827,52.9488929 73.7482916,52.7528462 L73.7482916,52.7528462 Z M96.6666667,60.1667795 C96.6666667,60.4320925 96.5610948,60.6863508 96.3736371,60.8738297 C96.1859538,61.0615341 95.9317242,61.1666667 95.6666667,61.1666667 C95.4013836,61.1666667 95.1471539,61.0615341 94.9596962,60.8738297 C94.7720129,60.6863508 94.6666667,60.4320925 94.6666667,60.1667795 C94.6666667,59.9014664 94.7720129,59.6469825 94.9596962,59.4595037 C95.1471539,59.2720248 95.4013836,59.1666667 95.6666667,59.1666667 L95.6716294,59.1666667 C95.9351079,59.1711788 96.1859538,59.2783418 96.372058,59.4649182 C96.5577111,59.6517202 96.6635085,59.9032713 96.6666667,60.1667795 L96.6666667,60.1667795 Z M93.7481348,52.7532072 C93.9562457,52.2806404 94.283057,51.8811758 94.6908859,51.6004559 C95.0988861,51.3199215 95.5714607,51.1694497 96.0549975,51.1666667 L96.0702419,51.1666667 C96.7430483,51.1692642 97.3891343,51.4538804 97.8728424,51.9605863 C98.3563792,52.4674777 98.6403692,53.1573102 98.6652055,53.8857347 C98.6838756,54.4859521 98.5232105,55.0768925 98.2070189,55.5702396 C97.8909985,56.0635867 97.435895,56.4329941 96.9102222,56.6239133 L96.9102222,56.6239133 C96.9102222,56.6239133 96.8351995,56.6530428 96.8351995,56.7009118 L96.8351995,57.3484415 C96.8351995,57.6408503 96.6913203,57.9109945 96.4575166,58.0570134 C96.2238843,58.2032178 95.9357833,58.2032178 95.702151,58.0570134 C95.4685186,57.9109945 95.3244681,57.6408503 95.3244681,57.3484415 L95.3244681,56.7009118 C95.3280651,56.3391115 95.4361458,55.9877014 95.6338084,55.6960348 C95.8314709,55.4041826 96.1082671,55.1869169 96.425829,55.074666 C96.6447308,54.99507 96.8341718,54.8410729 96.9657184,54.6354962 C97.0972651,54.4299194 97.1640661,54.1837097 97.156187,53.9337892 C97.1416278,53.6311758 97.0212147,53.346003 96.8196126,53.1359733 C96.6180104,52.9259436 96.3497785,52.8068278 96.0702419,52.803117 C95.8689823,52.8038592 95.6716623,52.8663857 95.5017478,52.9830895 C95.3318334,53.0999788 95.195662,53.2662214 95.1089919,53.4632634 C95.0247199,53.6630884 94.8697072,53.8180131 94.6787247,53.8925997 C94.4877422,53.9673717 94.2772333,53.9556828 94.0941299,53.8603159 C93.9113691,53.7647636 93.771772,53.593697 93.7066838,53.3855227 C93.6414244,53.1771628 93.6564974,52.9493215 93.7481348,52.7532072 L93.7481348,52.7532072 Z M84.6666667,26.1666667 C59.2789071,26.1666667 38.6666667,46.7790915 38.6666667,72.1666667 C38.6666667,97.5544262 59.2789071,118.166667 84.6666667,118.166667 C110.054242,118.166667 130.666667,97.5544262 130.666667,72.1666667 C130.666667,46.7790915 110.054242,26.1666667 84.6666667,26.1666667 L84.6666667,26.1666667 Z" id="Compulsion" fill="#6C63FF"></path>
                </g>
            </g>
        </g>
    </g>
</svg>