<?xml version="1.0" encoding="UTF-8"?>
<svg width="157px" height="117px" viewBox="0 0 157 117" version="1.1" xmlns="http://www.w3.org/2000/svg" xmlns:xlink="http://www.w3.org/1999/xlink">
    <title>F15E894E-149A-4FE4-A8D2-512119D4C39D</title>
    <defs>
        <linearGradient x1="30.7069532%" y1="113.20625%" x2="78.1108623%" y2="-47.6622146%" id="linearGradient-1">
            <stop stop-color="#FFFFFF" offset="0%"></stop>
            <stop stop-color="#EEEEEE" offset="100%"></stop>
        </linearGradient>
    </defs>
    <g id="Vocabulary-Explorer" stroke="none" stroke-width="1" fill="none" fill-rule="evenodd">
        <g id="Type" transform="translate(-467.000000, -725.000000)">
            <g id="Group-4" transform="translate(377.000000, 712.000000)">
                <g id="Obsessions" transform="translate(90.000000, 13.000000)">
                    <g id="OBS-BG">
                        <path d="M103.243868,0 L103.805764,0 C103.940734,0 104.050157,0.103948513 104.050157,0.232175503 L104.050157,0.765996344 C104.050663,0.827889258 104.025142,0.887414747 103.979255,0.931352297 C103.933368,0.975289848 103.870914,1 103.805764,1 L103.243868,1 C103.108586,0.99899589 102.999482,0.894522409 102.999482,0.765996344 L102.999482,0.232175503 C102.999482,0.103948513 103.108897,0 103.243868,0 Z M105.193185,0 L105.75508,0 C105.890051,0 105.999474,0.103948513 105.999474,0.232175503 L105.999474,0.765996344 C105.99998,0.827889258 105.974459,0.887414747 105.928571,0.931352297 C105.882684,0.975289848 105.82023,1 105.75508,1 L105.193185,1 C105.057151,1 104.946874,0.895232994 104.946874,0.765996344 L104.946874,0.232175503 C104.948961,0.104067644 105.058327,0.000977861488 105.193185,0 L105.193185,0 Z" id="Shape" fill="#E1E4E5"></path>
                        <path d="M11.0193825,73.1470299 C10.041039,91.0885651 45.2614044,127.570073 88.6835494,114.065792 C108.877025,107.786834 107.167253,97.365203 122.520258,83.6243298 C131.672428,75.4364023 144.82416,69.2432673 148.481301,57.3417784 C151.639953,47.0685968 149.701901,36.0253325 144.225507,28.8440794 C131.914684,12.6862599 107.043795,1.62675891 82.5316324,27.0766004 C58.0194693,52.526442 13.553758,26.8724821 11.0193825,73.1470299 Z" id="Path" fill="url(#linearGradient-1)" fill-rule="nonzero"></path>
                        <circle id="Oval" fill="#6E64FF" fill-rule="nonzero" cx="19.9994816" cy="76" r="2"></circle>
                        <circle id="Oval" fill="#6E64FF" fill-rule="nonzero" cx="139.499482" cy="44.5" r="3.5"></circle>
                        <circle id="Oval" fill="#E1E4E5" fill-rule="nonzero" cx="23.9994816" cy="47" r="2"></circle>
                        <circle id="Oval" fill="#E1E4E5" fill-rule="nonzero" cx="85.4994816" cy="8.5" r="3.5"></circle>
                        <circle id="Oval" fill="#6E64FF" fill-rule="nonzero" cx="44.4994816" cy="17.5" r="3.5"></circle>
                        <circle id="Oval" fill="#6E64FF" fill-rule="nonzero" cx="115.499482" cy="110.5" r="3.5"></circle>
                        <circle id="Oval" fill="#E1E4E5" fill-rule="nonzero" cx="25.9994816" cy="102" r="2"></circle>
                        <circle id="Oval" fill="#E1E4E5" fill-rule="nonzero" cx="155.499482" cy="63.5" r="1.5"></circle>
                        <circle id="Oval" fill="#E1E4E5" fill-rule="nonzero" cx="141.499482" cy="81.5" r="4.5"></circle>
                        <path d="M125.158279,26.0621471 L131.061054,20.1617197 C131.164158,20.0581972 131.304273,20 131.45041,20 C131.596546,20 131.736662,20.0581972 131.839766,20.1617197 L131.839766,20.1617197 C132.05272,20.3766431 132.05272,20.7229295 131.839766,20.9378529 L125.936991,26.8382803 C125.833887,26.9418028 125.693771,27 125.547635,27 C125.401498,27 125.261383,26.9418028 125.158279,26.8382803 L125.158279,26.8382803 C124.946549,26.6228546 124.946549,26.2775728 125.158279,26.0621471 L125.158279,26.0621471 Z" id="Path" fill="#E1E4E5" fill-rule="nonzero"></path>
                        <path d="M129.170438,26.9957383 L130.992999,25.173171 C131.103359,25.0623181 131.253336,25 131.409758,25 C131.56618,25 131.716156,25.0623181 131.826517,25.173171 L131.826517,25.173171 C131.937223,25.283116 131.999482,25.4326912 131.999482,25.5887164 C131.999482,25.7447415 131.937223,25.8943168 131.826517,26.0042617 L130.003956,27.826829 C129.893595,27.9376819 129.743619,28 129.587197,28 C129.430775,28 129.280799,27.9376819 129.170438,27.826829 L129.170438,27.826829 C128.942496,27.596687 128.942496,27.2258803 129.170438,26.9957383 L129.170438,26.9957383 Z" id="Path" fill="#E1E4E5" fill-rule="nonzero"></path>
                        <path d="M-0.457636032,56.1817544 L8.10583496,56.1817544 C8.41796486,56.1817544 8.67099614,56.4347857 8.67099614,56.7469156 L8.67099614,56.7469156 C8.67099614,57.057761 8.41900614,57.309751 8.10816073,57.309751 L-0.457636032,57.309751 C-0.768481446,57.309751 -1.02047625,57.057761 -1.02047625,56.7469156 L-1.02047625,56.7469156 C-1.02108994,56.5972398 -0.962064538,56.4534822 -0.856445312,56.3474266 C-0.750826086,56.2413709 -0.607313104,56.1817544 -0.457636032,56.1817544 Z" id="Path" fill="#E1E4E5" fill-rule="nonzero" transform="translate(3.825260, 56.745753) rotate(-45.000000) translate(-3.825260, -56.745753) "></path>
                        <path d="M1.03674396,54.0054459 L3.49740456,54.0054459 C3.80824997,54.0054459 4.06024478,54.2574359 4.06024478,54.5682814 L4.06024478,54.5682814 C4.06085847,54.7179571 4.00183306,54.8617148 3.89621384,54.9677704 C3.79059461,55.0738261 3.64708163,55.1334425 3.49740456,55.1334425 L1.03674396,55.1334425 C0.725522716,55.1321618 0.473908553,54.8795052 0.473908553,54.5682814 L0.473908553,54.5682814 C0.473908553,54.2574359 0.725898549,54.0054459 1.03674396,54.0054459 Z" id="Path" fill="#E1E4E5" fill-rule="nonzero" transform="translate(2.267077, 54.569444) rotate(-45.000000) translate(-2.267077, -54.569444) "></path>
                        <path d="M41.158236,114.062147 L47.0594293,108.16172 C47.1625058,108.058197 47.3025836,108 47.4486811,108 C47.5947785,108 47.7348564,108.058197 47.8379329,108.16172 L47.8379329,108.16172 C47.9413322,108.264394 47.9994816,108.404079 47.9994816,108.549786 C47.9994816,108.695494 47.9413322,108.835178 47.8379329,108.937853 L41.9367395,114.83828 C41.833663,114.941803 41.6935852,115 41.5474877,115 C41.4013903,115 41.2613125,114.941803 41.158236,114.83828 L41.158236,114.83828 C40.9465634,114.622855 40.9465634,114.277573 41.158236,114.062147 Z" id="Path" fill="#E1E4E5" fill-rule="nonzero"></path>
                        <path d="M45.1704262,114.995882 L46.9928623,113.171146 C47.2238173,112.942951 47.595368,112.942951 47.826323,113.171146 L47.826323,113.171146 C47.937168,113.281491 47.9994816,113.431447 47.9994816,113.587847 C47.9994816,113.744247 47.937168,113.894202 47.826323,114.004548 L46.003887,115.826854 C45.893534,115.937691 45.7435676,116 45.5871566,116 C45.4307456,116 45.2807792,115.937691 45.1704262,115.826854 L45.1704262,115.826854 C44.9425,115.596745 44.9425,115.225991 45.1704262,114.995882 Z" id="Path" fill="#E1E4E5" fill-rule="nonzero"></path>
                        <path d="M64.8378142,5.94006837 L58.9392992,11.8401574 C58.7236708,12.0532809 58.3767772,12.0532809 58.1611489,11.8401574 L58.1611489,11.8401574 C58.0576599,11.7371002 57.9994816,11.5970486 57.9994816,11.4509784 C57.9994816,11.3049083 58.0576599,11.1648567 58.1611489,11.0617995 L64.059664,5.16171047 C64.1626937,5.05819382 64.302708,5 64.4487391,5 C64.5947703,5 64.7347845,5.05819382 64.8378142,5.16171047 L64.8378142,5.16171047 C64.9413033,5.26476768 64.9994816,5.40481928 64.9994816,5.55088942 C64.9994816,5.69695955 64.9413033,5.83701116 64.8378142,5.94006837 Z" id="Path" fill="#E1E4E5" fill-rule="nonzero"></path>
                        <path d="M61.8264507,7.00654757 L60.0053586,8.82885374 C59.7745738,9.05704875 59.4032972,9.05704875 59.1725124,8.82885374 L59.1725124,8.82885374 C59.0617492,8.71850859 58.9994816,8.5685529 58.9994816,8.41215306 C58.9994816,8.25575323 59.0617492,8.10579753 59.1725124,7.99545238 L60.9936046,6.17314621 C61.1038762,6.06230914 61.253732,6 61.4100276,6 C61.5663233,6 61.7161791,6.06230914 61.8264507,6.17314621 L61.8264507,6.17314621 C61.9372139,6.28349136 61.9994816,6.43344706 61.9994816,6.58984689 C61.9994816,6.74624673 61.9372139,6.89620242 61.8264507,7.00654757 L61.8264507,7.00654757 Z" id="Path" fill="#E1E4E5" fill-rule="nonzero"></path>
                        <path d="M98.2219244,3 L98.9046356,3 C99.0690094,3 99.2026221,3.13122412 99.2039062,3.29393187 L99.2039062,3.96048603 C99.2039062,4.12409834 99.0699182,4.25673232 98.9046356,4.25673232 L98.2219244,4.25673232 C98.0575556,4.25546113 97.9249918,4.12319875 97.9249918,3.96048603 L97.9249918,3.29393187 C97.9249918,3.13159778 98.0579331,3 98.2219244,3 Z M100.588033,3 L101.270744,3 C101.434206,3.00125928 101.566405,3.13212226 101.567686,3.29393187 L101.567686,3.96048603 C101.5683,4.03884184 101.537292,4.11420052 101.481538,4.16982502 C101.425785,4.22544952 101.349902,4.25673232 101.270744,4.25673232 L100.588033,4.25673232 C100.423664,4.25546113 100.2911,4.12319875 100.2911,3.96048603 L100.2911,3.29393187 C100.2911,3.13159778 100.424042,3 100.588033,3 Z M102.954142,3 L103.636853,3 C103.800314,3.00125928 103.932513,3.13212226 103.933795,3.29393187 L103.933795,3.96048603 C103.934409,4.03884184 103.9034,4.11420052 103.847647,4.16982502 C103.791893,4.22544952 103.716011,4.25673232 103.636853,4.25673232 L102.954142,4.25673232 C102.789773,4.25546113 102.657209,4.12319875 102.657209,3.96048603 L102.657209,3.29393187 C102.657209,3.13159778 102.79015,3 102.954142,3 Z M105.32025,3 L106.002961,3 C106.166423,3.00125928 106.298622,3.13212226 106.299903,3.29393187 L106.299903,3.96048603 C106.300517,4.03884184 106.269509,4.11420052 106.213755,4.16982502 C106.158002,4.22544952 106.08212,4.25674138 106.002961,4.25674138 L105.322588,4.25674138 C105.242812,4.25734929 105.16609,4.2264103 105.109459,4.17078633 C105.052828,4.11516236 105.020979,4.03945808 105.020979,3.96048603 L105.020979,3.29393187 C105.023534,3.13085183 105.157823,2.9999804 105.322588,3 L105.32025,3 Z M107.686359,3 L108.362056,3 C108.52643,3 108.660042,3.13122412 108.661326,3.29393187 L108.661326,3.96048603 C108.663858,4.04064689 108.633449,4.11839875 108.577048,4.17597438 C108.520648,4.23355002 108.443075,4.26602919 108.362056,4.26599005 L107.681683,4.26599005 C107.601684,4.26416981 107.525695,4.23095494 107.470443,4.17365707 C107.415191,4.11635921 107.385206,4.03967532 107.387088,3.96048603 L107.387088,3.29393187 C107.388372,3.13122412 107.521985,3 107.686359,3 Z M100.672203,5.54586658 L101.3479,5.54586658 C101.512269,5.54713778 101.644837,5.67940016 101.644832,5.84211288 L101.644832,6.51792473 C101.646722,6.59707627 101.616274,6.67363522 101.560382,6.73026908 C101.50449,6.78690294 101.427882,6.81882197 101.3479,6.81879989 L100.665189,6.81879989 C100.501197,6.81879989 100.368247,6.68720209 100.368247,6.52486801 L100.368247,5.84905615 C100.367634,5.77109985 100.398322,5.69609189 100.45357,5.6405344 C100.508817,5.58497692 100.584098,5.55342127 100.662851,5.55280986 L100.672203,5.54586658 Z M103.038311,5.54586658 L103.721023,5.54586658 C103.885391,5.54713778 104.017955,5.67940016 104.017955,5.84211288 L104.017955,6.51792473 C104.017955,6.68025882 103.885014,6.8118566 103.721023,6.8118566 L103.038311,6.8118566 C102.881658,6.80474689 102.756645,6.67999041 102.750731,6.52486801 L102.750731,5.84905615 C102.751982,5.68685818 102.883825,5.5553199 103.047664,5.55280986 L103.038311,5.54586658 Z M105.40442,5.54586658 L106.084793,5.54586658 C106.250076,5.54586658 106.384064,5.67850057 106.384064,5.84211288 L106.384064,6.51792473 C106.384064,6.59628297 106.352462,6.67139859 106.296269,6.72658852 C106.240077,6.78177846 106.163949,6.8124736 106.084793,6.81186573 L105.40442,6.81186573 C105.240046,6.81186573 105.106434,6.68063248 105.105149,6.51792473 L105.105149,5.84905615 C105.106434,5.68507017 105.241093,5.55280493 105.406758,5.55280986 L105.40442,5.54586658 Z M134.700211,96.2481497 L134.019838,96.2481497 C133.854555,96.2481497 133.720567,96.1155157 133.720567,95.9519034 L133.720567,95.2784059 C133.720567,95.1147936 133.854555,94.9821596 134.019838,94.9821596 L134.700211,94.9821596 C134.864964,94.9834191 134.998209,95.1153181 134.999482,95.2784059 L134.999482,95.9519034 C134.998231,96.1141013 134.866388,96.2456396 134.702549,96.2481497 L134.700211,96.2481497 Z M132.33644,96.2481497 L131.653729,96.2481497 C131.48936,96.2468785 131.356787,96.1146161 131.356787,95.9519034 L131.356787,95.2784059 C131.356173,95.2000501 131.387182,95.1246915 131.442935,95.069067 C131.498689,95.0134425 131.574571,94.9821596 131.653729,94.9821596 L132.33644,94.9821596 C132.500809,94.9834308 132.633373,95.1156932 132.633373,95.2784059 L132.633373,95.9519034 C132.633373,96.1146161 132.500809,96.2468785 132.33644,96.2481497 Z M129.967994,96.2481497 L129.287621,96.2481497 C129.122868,96.2468902 128.989622,96.1149912 128.98835,95.9519034 L128.98835,95.2784059 C128.98835,95.1147936 129.122338,94.9821596 129.287621,94.9821596 L129.967994,94.9821596 C130.132747,94.9834191 130.265992,95.1153181 130.267264,95.2784059 L130.267264,95.9519034 C130.266014,96.1141013 130.134171,96.2456396 129.970332,96.2481497 L129.967994,96.2481497 Z M127.604223,96.2481497 L126.921512,96.2481497 C126.757143,96.2468785 126.62457,96.1146161 126.62457,95.9519034 L126.62457,95.2784059 C126.623956,95.2000501 126.654965,95.1246915 126.710718,95.069067 C126.766471,95.0134425 126.842354,94.9821596 126.921512,94.9821596 L127.604223,94.9821596 C127.768976,94.9834191 127.902222,95.1153181 127.903494,95.2784059 L127.903494,95.9519034 C127.900986,96.1144763 127.768456,96.2456672 127.604223,96.2481497 L127.604223,96.2481497 Z M125.238115,96.2481497 L124.555404,96.2481497 C124.390651,96.2468902 124.257405,96.1149912 124.256133,95.9519034 L124.256133,95.2784059 C124.256133,95.1147936 124.390121,94.9821596 124.555404,94.9821596 L125.238115,94.9821596 C125.402484,94.9834308 125.535047,95.1156932 125.535047,95.2784059 L125.535047,95.9519034 C125.535047,96.1146161 125.402484,96.2468785 125.238115,96.2481497 Z M132.252271,93.7022831 L131.569559,93.7022831 C131.405186,93.7022831 131.271573,93.571059 131.270289,93.4083512 L131.270289,92.7325394 C131.271561,92.5694516 131.404807,92.4375525 131.569559,92.4362931 L132.252271,92.4362931 C132.416639,92.4375643 132.549203,92.5698266 132.549203,92.7325394 L132.549203,93.4083512 C132.549203,93.5706853 132.416262,93.7022831 132.252271,93.7022831 L132.252271,93.7022831 Z M129.886162,93.7022831 L129.203451,93.7022831 C129.039459,93.7022831 128.906518,93.5706853 128.906518,93.4083512 L128.906518,92.7325394 C128.906518,92.5698266 129.039082,92.4375643 129.203451,92.4362931 L129.886162,92.4362931 C130.050531,92.4375643 130.183104,92.5698266 130.183104,92.7325394 L130.183104,93.4083512 C130.183718,93.4860932 130.152956,93.5608632 130.097641,93.6160537 C130.042326,93.6712441 129.967038,93.7022831 129.8885,93.7022831 L129.886162,93.7022831 Z M127.520053,93.7022831 L126.832666,93.7022831 C126.668675,93.7022831 126.535734,93.5706853 126.535734,93.4083512 L126.535734,92.7325394 C126.535734,92.5698266 126.668297,92.4375643 126.832666,92.4362931 L127.515377,92.4362931 C127.68013,92.4375525 127.813376,92.5694516 127.814648,92.7325394 L127.814648,93.4083512 C127.813364,93.571059 127.679751,93.7022831 127.515377,93.7022831 L127.520053,93.7022831 Z M129.970332,99 L129.287621,99 C129.122868,98.9987406 128.989622,98.8668415 128.98835,98.7037537 L128.98835,98.0302563 C128.98835,97.866644 129.122338,97.73401 129.287621,97.73401 L129.967994,97.73401 C130.132747,97.7352694 130.265992,97.8671685 130.267274,98.0302563 L130.267274,98.7037537 C130.267888,98.7821095 130.236879,98.8574682 130.181126,98.9130927 C130.125372,98.9687172 130.04949,99 129.970332,99 L129.970332,99 Z M127.606561,99 L126.92385,99 C126.759481,98.9987288 126.626908,98.8664664 126.626908,98.7037537 L126.626908,98.0302563 C126.626294,97.9519005 126.657303,97.8765418 126.713056,97.8209173 C126.768809,97.7652928 126.844692,97.73401 126.92385,97.73401 L127.606561,97.73401 C127.771314,97.7352694 127.90456,97.8671685 127.905832,98.0302563 L127.905832,98.7037537 C127.898375,98.8635843 127.765854,98.9896819 127.604223,98.9907423 L127.606561,99 Z M26.2964323,30.9466718 L26.9791435,30.9466718 C27.0583017,30.9466718 27.1341842,30.9779546 27.1899375,31.0335791 C27.2456909,31.0892036 27.2766994,31.1645623 27.2760853,31.2429181 L27.2760853,31.9164155 C27.2766994,31.9947713 27.2456909,32.07013 27.1899375,32.1257545 C27.1341842,32.181379 27.0583017,32.2126618 26.9791435,32.2126618 L26.2964323,32.2126618 C26.1320635,32.2113906 25.9994905,32.0791283 25.9994905,31.9164155 L25.9994905,31.2429181 C25.9988765,31.1645623 26.029885,31.0892036 26.0856383,31.0335791 C26.1413917,30.9779546 26.2172741,30.9466718 26.2964323,30.9466718 Z M28.6625409,30.9466718 L29.3358999,30.9466718 C29.5002687,30.947943 29.6328417,31.0802054 29.6328417,31.2429181 L29.6328417,31.9164155 C29.6334558,31.9947713 29.6024473,32.07013 29.5466939,32.1257545 C29.4909405,32.181379 29.4150581,32.2126618 29.3358999,32.2126618 L28.6531887,32.2126618 C28.4888199,32.2113906 28.3562561,32.0791283 28.3562561,31.9164155 L28.3562561,31.2429181 C28.3562362,31.0810966 28.487397,30.9492003 28.6508507,30.9466718 L28.6625409,30.9466718 Z M31.0286495,30.9466718 L31.7113607,30.9466718 C31.8757295,30.947943 32.0083025,31.0802054 32.0083025,31.2429181 L32.0083025,31.9164155 C32.0089165,31.9947713 31.977908,32.07013 31.9221547,32.1257545 C31.8664013,32.181379 31.7905188,32.2126618 31.7113607,32.2126618 L31.0286495,32.2126618 C30.8642807,32.2113906 30.7317077,32.0791283 30.7317077,31.9164155 L30.7317077,31.2429181 C30.7310936,31.1645623 30.7621021,31.0892036 30.8178555,31.0335791 C30.8736088,30.9779546 30.9494913,30.9466718 31.0286495,30.9466718 L31.0286495,30.9466718 Z M33.3947581,30.9466718 L34.0774692,30.9466718 C34.241838,30.947943 34.374411,31.0802054 34.374411,31.2429181 L34.374411,31.9164155 C34.3750251,31.9947713 34.3440166,32.07013 34.2882632,32.1257545 C34.2325099,32.181379 34.1566274,32.2126618 34.0774692,32.2126618 L33.3947581,32.2126618 C33.2294754,32.2126618 33.0954874,32.0800278 33.0954874,31.9164155 L33.0954874,31.2429181 C33.097716,31.0846665 33.2234162,30.9551785 33.3830678,30.9466718 L33.3947581,30.9466718 Z M35.7608666,30.9466718 L36.4412397,30.9466718 C36.6065224,30.9466718 36.7405104,31.0793058 36.7405104,31.2429181 L36.7405104,31.9164155 C36.7405104,32.0800278 36.6065224,32.2126618 36.4412397,32.2126618 L35.7608666,32.2126618 C35.5961139,32.2114024 35.4628683,32.0795033 35.461596,31.9164155 L35.461596,31.2429181 C35.4626656,31.0841977 35.5890054,30.9540508 35.7491764,30.9466718 L35.7608666,30.9466718 Z M28.7467108,33.4925384 L29.429422,33.4925384 C29.5937908,33.4938096 29.7263545,33.626072 29.7263545,33.7887847 L29.7263545,34.4645965 C29.7263545,34.6269306 29.5934133,34.7585284 29.429422,34.7585284 L28.7467108,34.7585284 C28.5827194,34.7585284 28.4497689,34.6269306 28.4497689,34.4645965 L28.4497689,33.7887847 C28.4491556,33.7108284 28.479844,33.6358204 28.5350918,33.5802629 C28.5903395,33.5247055 28.6656205,33.4931498 28.7443727,33.4925384 L28.7467108,33.4925384 Z M31.1128194,33.4925384 L31.7955305,33.4925384 C31.9593695,33.4950484 32.0912125,33.6265867 32.0924631,33.7887847 L32.0924631,34.4645965 C32.091191,34.6264062 31.958992,34.7572691 31.7955305,34.7585284 L31.1128194,34.7585284 C30.9489655,34.7572904 30.8160844,34.6267798 30.8135487,34.4645965 L30.8135487,33.7887847 C30.8147993,33.6265867 30.9466423,33.4950484 31.1104813,33.4925384 L31.1128194,33.4925384 Z M33.4765899,33.4925384 L34.159301,33.4925384 C34.3245837,33.4925384 34.4585717,33.6251724 34.4585717,33.7887847 L34.4585717,34.4645965 C34.4585717,34.5429548 34.4269695,34.6180704 34.3707772,34.6732603 C34.3145848,34.7284503 34.2384568,34.7591454 34.159301,34.7585375 L33.4765899,34.7585375 C33.3125985,34.7585375 33.1796573,34.6269306 33.1796573,34.4645965 L33.1796573,33.7887847 C33.1832446,33.6322833 33.309217,33.5055563 33.4672377,33.4994817 L33.4765899,33.4925384 Z M31.0263114,28.1971359 L31.7090226,28.1971359 C31.8733914,28.1984071 32.0059644,28.3306695 32.0059644,28.4933822 L32.0059644,29.1668796 C32.0065785,29.2452354 31.97557,29.3205941 31.9198166,29.3762186 C31.8640633,29.4318431 31.7881808,29.4631259 31.7090226,29.4631259 L31.0263114,29.4631259 C30.8624724,29.4606159 30.7306294,29.3290776 30.7293696,29.1668796 L30.7293696,28.4933822 C30.7287555,28.4150264 30.759764,28.3396677 30.8155174,28.2840432 C30.8712708,28.2284187 30.9471532,28.1971359 31.0263114,28.1971359 L31.0263114,28.1971359 Z M33.39242,28.1971359 L34.0751312,28.1971359 C34.2358313,28.2033545 34.3628343,28.3341846 34.3627208,28.4933822 L34.3627208,29.1668796 C34.3633349,29.2452354 34.3323264,29.3205941 34.276573,29.3762186 C34.2208196,29.4318431 34.1449372,29.4631259 34.065779,29.4631259 L33.3830678,29.4631259 C33.2177852,29.4631259 33.0837971,29.3304919 33.0837971,29.1668796 L33.0837971,28.4933822 C33.0899954,28.3335265 33.2214786,28.2064226 33.3830678,28.2040792 L33.39242,28.1971359 Z" id="Shape" fill="#E1E4E5"></path>
                    </g>
                    <path d="M55.3664295,41.6916482 C57.2996807,38.6769488 60.9691699,36.5967828 64.70898,37.3059753 C70.5498179,38.503166 75.3652701,44.2513394 73.6468033,49.9560672 C72.780213,52.8319566 70.9006579,55.4713284 67.9148865,56.8788971 C64.9037001,58.2985442 61.0587908,58.782396 58.3776158,57.095044 C57.4812156,56.5309709 57.723708,54.9458336 58.7926619,54.668394 C59.4347222,54.5016418 60.0557627,54.9424084 60.7154032,55.1459362 C65.6292665,56.6649135 71.6799204,52.1550328 70.9849284,46.4569752 C70.5310911,42.7366887 66.3450873,39.5242302 62.724708,39.891085 C57.636189,40.4079267 54.3041636,47.5771894 59.7404652,50.6497563 C60.7989093,51.2475404 62.0864695,51.5821264 63.3128811,51.2715166 C66.1694761,50.5475417 68.3245821,46.7913809 65.3237146,44.6957115 C64.2973735,43.9789474 62.7879586,43.6845622 61.7004689,44.9084332 C60.9152827,45.7921297 61.5869619,47.7680981 62.6677634,47.3842976 C62.9261162,47.0370925 62.8642032,46.2357806 64.0451356,46.0131439 C65.0407112,45.8243985 66.0553958,46.8800751 65.6596497,47.8299316 C65.0884835,49.2052316 63.5202131,50.456504 61.6349253,50.0375504 C59.4828768,49.5607293 57.9967747,47.2391782 58.4467902,45.1631584 C58.9826048,42.6963076 61.7916186,41.0260816 64.3854657,41.4421508 C68.1669334,42.0491288 70.832439,46.4876215 69.0581742,49.9593121 C67.6966624,52.6253642 64.5115847,54.4309749 61.405618,54.0394228 C56.515641,53.4225298 52.7133446,48.4291579 54.4100271,43.7561305 C54.561561,43.2632651 54.6188878,43.1406797 54.7488286,42.8477366 C54.925013,42.4491538 55.1348291,42.0639112 55.3668116,41.692189 L55.3664295,41.6916482 Z M91.3662274,41.6916482 C93.2988016,38.6769488 96.9692212,36.5967828 100.7092,37.3059753 C106.549538,38.503166 111.365208,44.2513394 109.646855,49.9560672 C108.780225,52.8319566 106.90135,55.4713284 103.914679,56.8788971 C100.903356,58.2985442 97.0590373,58.782396 94.377741,57.095044 C93.4805358,56.5309709 93.7238036,54.9458336 94.7920415,54.668394 C95.4339397,54.5016418 96.0550083,54.9424084 96.7148698,55.1459362 C101.628955,56.6649135 107.679883,52.1550328 106.986388,46.4569752 C106.53253,42.7366887 102.346337,39.5242302 98.7257942,39.891085 C93.6370451,40.4079267 90.304869,47.5771894 95.7398877,50.6497563 C96.7983796,51.2475404 98.085998,51.5821264 99.3139939,51.2715166 C102.169189,50.5475417 104.325922,46.7913809 101.324345,44.6957115 C100.297958,43.9789474 98.7900031,43.6845622 97.7016999,44.9084332 C96.9164782,45.7921297 97.5876144,47.7680981 98.6677004,47.3842976 C98.9260649,47.0370925 98.8647224,46.2357806 100.044944,46.0131439 C101.040756,45.8243985 102.055295,46.8800751 101.66106,47.8299316 C101.090059,49.2052316 99.520953,50.456504 97.6346245,50.0375504 C95.4824786,49.5607293 93.9963094,47.2391782 94.4471096,45.1631584 C94.9823751,42.6963076 97.7920893,41.0260816 100.385863,41.4421508 C104.167501,42.0491288 106.832554,46.4876215 105.058782,49.9593121 C103.696636,52.6253642 100.511987,54.4309749 97.4060713,54.0394228 C92.5151086,53.4225298 88.7132136,48.4291579 90.410164,43.7561305 C90.5609403,43.2632651 90.6192252,43.1406797 90.7484075,42.8477366 C90.9251731,42.4491538 91.1342344,42.0639112 91.3671829,41.692189 L91.3662274,41.6916482 Z M99.9541537,83.9421503 C98.4137629,75.5393816 90.9608044,69.1666667 81.9989394,69.1666667 C73.0370744,69.1666667 65.5850155,75.5393816 64.0444447,83.9421503 C63.7358988,85.6220296 65.0550001,87.1666667 66.7844765,87.1666667 L97.2146616,87.1666667 C98.9441381,87.1666667 100.263059,85.6220296 99.9545135,83.9421503 L99.9541537,83.9421503 Z M81.9994816,16.1666667 C107.387057,16.1666667 127.999482,36.7790915 127.999482,62.1666667 C127.999482,87.5542418 107.387057,108.166667 81.9994816,108.166667 C56.6119064,108.166667 35.9994816,87.5542418 35.9994816,62.1666667 C35.9994816,36.7790915 56.6119064,16.1666667 81.9994816,16.1666667 L81.9994816,16.1666667 Z" id="Obsession" fill="#6C63FF"></path>
                </g>
            </g>
        </g>
    </g>
</svg>