<?xml version="1.0" encoding="UTF-8"?>
<svg width="350px" height="235px" viewBox="0 0 350 235" version="1.1" xmlns="http://www.w3.org/2000/svg" xmlns:xlink="http://www.w3.org/1999/xlink">
    <title>D420347E-EF4B-4797-A8B1-525F193A81F8</title>
    <g id="Vocabulary-Explorer" stroke="none" stroke-width="1" fill="none" fill-rule="evenodd">
        <g id="Step-1:-Type" transform="translate(-545.000000, -76.000000)" fill-rule="nonzero">
            <g id="undraw_discoverable_xwsc" transform="translate(545.000000, 76.000000)">
                <path d="M163.141866,110.377358 L4.78263988,110.377358 C2.1424512,110.374462 0.00288031348,108.231904 0,105.588043 L0,4.78929808 C0.00289260465,2.14544429 2.14245918,0.0028990961 4.78263988,0 L163.141866,0 C165.782061,0.00288925963 167.921643,2.14544749 167.924528,4.78931596 L167.924528,105.588043 C167.921646,108.231912 165.782062,110.374472 163.141866,110.377358 Z M4.78263988,1.06427506 C2.72925707,1.06676719 1.06528267,2.73305855 1.06279647,4.78929808 L1.06279647,105.588043 C1.06528022,107.644283 2.72925606,109.310576 4.78263988,109.313066 L163.141866,109.313066 C165.195251,109.310576 166.859228,107.644284 166.861714,105.588043 L166.861714,4.78929808 C166.859228,2.73305681 165.195251,1.06676472 163.141866,1.06427506 L4.78263988,1.06427506 Z" id="Shape" fill="#3F3D56"></path>
                <circle id="Oval" fill="#CCCCCC" cx="97.6415094" cy="64.6226415" r="29.7169811"></circle>
                <path d="M324.931052,234.264861 C326.047022,222.287539 329.129287,210.57417 334.054789,199.592394 C335.42756,196.536285 336.938505,193.547455 338.587625,190.625903 C339.011298,189.8742 337.851871,189.198859 337.428216,189.950539 C331.430995,200.591523 327.229535,212.14246 324.991829,224.141494 C324.369356,227.492295 323.901515,230.86675 323.588306,234.264861 C323.508714,235.121961 324.851952,235.116555 324.931039,234.264861 L324.931052,234.264861 Z" id="Path" fill="#E6E6E6"></path>
                <circle id="Oval" fill="#E6E6E6" cx="341.509434" cy="183.962264" r="8.49056604"></circle>
                <path d="M326.313643,234.491667 C327.011634,226.753622 328.93945,219.186106 332.020128,212.091241 C332.878735,210.116821 333.823763,208.185865 334.855215,206.298372 C334.962737,206.093188 334.892956,205.837202 334.697431,205.719554 C334.501905,205.601906 334.25098,205.664923 334.130057,205.862043 C330.379069,212.736737 327.751248,220.199312 326.351664,227.951383 C325.962334,230.116196 325.669721,232.296291 325.473825,234.491667 C325.424046,235.045403 326.26418,235.041911 326.313643,234.491667 Z" id="Path" fill="#E6E6E6"></path>
                <circle id="Oval" fill="#E6E6E6" cx="336.792453" cy="201.886792" r="5.66037736"></circle>
                <path d="M324.454411,233.259671 C320.269032,226.809662 317.184761,219.724645 315.324734,212.28748 C314.808157,210.21699 314.388282,208.126359 314.065109,206.015587 C314.026229,205.789021 313.812535,205.63363 313.581904,205.664216 C313.351272,205.694803 313.186666,205.900364 313.209696,206.129032 C314.391459,213.813416 316.844151,221.253749 320.469705,228.152536 C321.483394,230.078117 322.58482,231.955219 323.773984,233.783841 C324.073627,234.245301 324.75216,233.718245 324.454411,233.259697 L324.454411,233.259671 Z" id="Path" fill="#E6E6E6"></path>
                <circle id="Oval" fill="#E6E6E6" cx="313.207547" cy="201.886792" r="5.66037736"></circle>
                <path d="M280.435321,154.553098 C281.1224,153.445484 281.312808,152.071149 280.955307,150.7999 C280.597807,149.528652 279.729123,148.491078 278.583002,147.966371 L279.669323,132.075472 L272.875444,136.120434 L272.885431,150.590562 C272.168331,152.743612 273.079,155.126711 275.005181,156.137657 C276.931362,157.148604 279.264215,156.467852 280.435321,154.553084 L280.435321,154.553098 Z" id="Path" fill="#FFB8B8"></path>
                <path d="M279.232247,91.8776196 L281.132075,142.45283 L273.413379,142.006912 L271.698113,88.9426627 L273.325901,88.1460925 C274.583784,87.530533 276.054663,87.6117571 277.242779,88.3623884 C278.430896,89.1130198 279.177987,90.4330701 279.232247,91.8776196 L279.232247,91.8776196 Z" id="Path" fill="#6C63FF"></path>
                <polygon id="Path" fill="#FFB8B8" points="253.772751 229.245283 248.659412 229.245283 246.226415 207.54717 253.773585 207.54717"></polygon>
                <path d="M243.717833,227.358491 L254.716981,227.358491 L254.716981,233.962264 L236.792453,233.962264 L236.792453,233.962264 C236.792453,232.210835 237.522087,230.531139 238.820848,229.292691 C240.119609,228.054243 241.881107,227.358491 243.717833,227.358491 Z" id="Path" fill="#2F2E41"></path>
                <polygon id="Path" fill="#FFB8B8" points="299.056604 223.146723 294.139561 225.471698 283.018868 207.205519 290.276644 203.773585"></polygon>
                <path d="M291.52815,224.308271 L302.120946,224.308271 L302.120946,230.977804 L284.858621,230.977804 L284.858621,230.977804 C284.858621,229.208935 285.5613,227.512513 286.812079,226.261732 C288.062859,225.010952 289.75928,224.308271 291.52815,224.308271 Z" id="Path" fill="#2F2E41" transform="translate(293.489784, 227.643038) rotate(-24.841160) translate(-293.489784, -227.643038) "></path>
                <path d="M240.691856,160.536235 L246.292005,225.471698 L253.821581,224.571623 L259.386381,165.256717 L290.140715,221.871396 L298.113208,219.621208 C298.113208,219.621208 272.452411,141.629736 270.459288,135.104189 C268.274355,127.950645 250.970972,125.203358 250.970972,125.203358 L250.306598,124.528302 C242.8715,134.698043 239.893397,147.893536 240.691856,160.536235 Z" id="Path" fill="#2F2E41"></path>
                <circle id="Oval" fill="#FFB8B8" cx="270.754717" cy="72.6415094" r="11.3207547"></circle>
                <path d="M278.301887,88.8086307 L269.974287,133.018868 C269.974287,133.018868 258.56654,130.698551 254.502908,127.903603 C252.893473,126.79275 251.433271,125.646063 250.201991,124.606721 C248.816902,123.448264 247.490027,122.219431 246.226415,120.9249 C246.226415,120.9249 249.14659,106.318138 250.188696,102.407764 C251.399026,97.8782105 255.551057,92.602244 258.784845,89.0069538 C261.174038,86.3528672 264.805977,85.2578975 268.228596,86.1598189 L278.301887,88.8086307 Z" id="Path" fill="#6C63FF"></path>
                <path d="M254.326652,127.358491 C252.707587,126.266843 251.238648,125.139981 250,124.118608 C250.44673,117.542338 260.184221,103.773585 264.130469,103.773585 C264.13046,103.773585 265.063891,124.994669 254.326652,127.358491 Z" id="Path" fill="#000000" opacity="0.2"></path>
                <path d="M234.383172,145.94645 C235.632426,145.49543 236.616886,144.5166 237.071657,143.273342 C237.526428,142.030084 237.404795,140.650108 236.739487,139.504733 L247.169811,127.480797 L238.947336,126.415094 L230.303113,137.996613 C228.403047,139.264897 227.755956,141.747811 228.796892,143.776036 C229.837829,145.804261 232.237766,146.736698 234.383172,145.94645 L234.383172,145.94645 Z" id="Path" fill="#FFB8B8"></path>
                <path d="M263.130421,86.7924528 C262.677183,86.802079 262.22581,86.8539339 261.782197,86.9476122 C259.957941,87.365911 258.465212,88.6757272 257.80906,90.4338978 L244.943285,117.398844 L231.132075,132.14876 L238.03768,137.735849 L259.868302,118.069295 L268.589858,94.2542153 C269.154842,92.5094723 268.848335,90.5985629 267.76629,89.1197172 C266.684245,87.6408715 264.958911,86.7748332 263.130421,86.7924528 L263.130421,86.7924528 Z" id="Path" fill="#6C63FF"></path>
                <path d="M271.165202,82.9077172 C272.723888,80.5667059 273.953992,77.3205913 272.237874,75.0932057 C270.543877,72.8945306 267.202742,73.2184549 264.608341,72.2455547 C260.994795,70.8904858 258.89904,66.6308054 259.552658,62.8159901 C260.206276,59.0011748 263.258197,55.8388075 266.893923,54.5448734 C270.529648,53.2509392 274.629507,53.6717513 278.189876,55.1618009 C282.572732,56.9960651 286.332457,60.5443282 287.909018,65.0390538 C289.48558,69.5337793 288.642786,74.9305478 285.372183,78.3852832 C281.865741,82.089144 276.362592,83.0762272 271.2717,83.0163362" id="Path" fill="#2F2E41"></path>
                <path d="M288.892443,69.2748074 C289.337107,71.8139648 292.062644,73.2561163 294.567563,73.5730864 C297.072482,73.8900564 299.663692,73.4836186 302.10222,74.1494038 C306.401253,75.3231249 309.236705,79.5484128 310.797375,83.8071307 C312.358046,88.0658486 313.050178,92.6622867 315.077913,96.7102741 C317.105649,100.758261 321.03735,104.327002 325.471698,103.948399 C323.691895,108.527788 319.292731,111.47427 314.473834,111.314572 C309.654938,111.154873 305.451802,107.923311 303.96604,103.2357 C302.337037,98.0961291 304.206994,91.9669046 301.358211,87.4160223 C299.7818,84.8977331 297.059689,83.4164429 294.434968,82.0965897 C291.810248,80.7767364 289.05539,79.4219772 287.295635,77.033893 C285.535881,74.6458089 285.184271,70.8743085 287.35285,68.8679245" id="Path" fill="#2F2E41"></path>
                <path d="M341.918677,234.90566 L198.647361,234.90566 C198.456711,234.906148 198.280306,234.81635 198.184821,234.670206 C198.089336,234.524062 198.089336,234.343863 198.184821,234.197719 C198.280306,234.051574 198.456711,233.961777 198.647361,233.962264 L341.918677,233.962264 C342.109327,233.961777 342.285732,234.051574 342.381217,234.197719 C342.476701,234.343863 342.476701,234.524062 342.381217,234.670206 C342.285732,234.81635 342.109327,234.906148 341.918677,234.90566 Z" id="Path" fill="#3F3D56"></path>
                <path d="M87.7357409,100 C71.0630225,100 57.5471698,86.4840046 57.5471698,69.8112862 C57.5471698,53.1385678 71.0630916,39.6226415 87.73581,39.6226415 C104.408528,39.6226415 117.924528,53.1384897 117.924528,69.8112081 C117.905711,86.4762151 104.400748,99.9811801 87.7357409,100 Z M87.7357409,40.5238191 C75.8900502,40.5238191 65.2107893,47.6595754 60.6776822,58.6035842 C56.1445751,69.547593 58.6503401,82.1446621 67.0265425,90.5207962 C75.4027449,98.8969303 87.9998344,101.402593 98.9438062,96.8693962 C109.887778,92.3361999 117.023351,81.6568808 117.023351,69.8111901 C117.004998,53.6437367 103.903194,40.5420403 87.7357409,40.5238191 Z" id="Shape" fill="#3F3D56"></path>
                <polygon id="Path" fill="#6C63FF" points="69.3396226 16.9811321 41.509434 64.1509434 97.1698113 64.1509434 69.3396226 16.9811321 41.509434 64.1509434 97.1698113 64.1509434"></polygon>
            </g>
        </g>
    </g>
</svg>