<?xml version="1.0" encoding="UTF-8"?>
<svg width="242px" height="156px" viewBox="0 0 242 156" version="1.1" xmlns="http://www.w3.org/2000/svg" xmlns:xlink="http://www.w3.org/1999/xlink">
    <title>60DF036A-737B-4169-A097-8C6F3B1B806B</title>
    <g id="Vocabulary-Explorer" stroke="none" stroke-width="1" fill="none" fill-rule="evenodd">
        <g id="Step-3:-Related-Vocabulary" transform="translate(-742.000000, -712.000000)" fill-rule="nonzero">
            <g id="Phrases" transform="translate(742.000000, 712.000000)">
                <path d="M190.797117,9.99937067 C216.159221,18.2645596 235.823266,41.4378426 240.909454,70.4082907 C245.207856,94.8348071 238.071896,124.866275 196.395748,138.836366 C153.862978,153.06018 34.9226614,159.902987 12.8340732,120.322343 C-9.25451491,80.741699 -4.60428582,29.8819553 40.7277993,11.8753763 C72.522211,-0.764596252 141.266058,-6.08507133 190.797117,9.99937067 Z" id="Path" fill="#E6E6E6" opacity="0.3"></path>
                <path d="M209,47.0037787 C208.99152,54.7302251 202.617717,60.9916696 194.752622,61 L39.9239378,61 C32.1821873,60.8232883 26,54.6073296 26,47 C26,39.3926704 32.1821873,33.1767117 39.9239378,33 L194.752622,33 C202.622476,33.0041722 209,39.2726556 209,47.0037787 L209,47.0037787 Z" id="Path" fill="#E6E6E6"></path>
                <path d="M215,45.9848649 C214.991551,53.7217524 208.640829,59.9916583 200.804217,60 L46.5362267,60 C38.9607448,59.6521358 33,53.4871661 33,46 C33,38.5128339 38.9607448,32.3478642 46.5362267,32 L200.804217,32 C208.644332,32 215,38.2747897 215,46.0151351 L215,45.9848649 Z" id="Path" fill="#E6E6E6"></path>
                <circle id="Oval" fill="#FFD200" cx="85.5" cy="46.5" r="14.5"></circle>
                <path d="M93,21.5 C92.9916199,24.534149 90.4903411,26.9917662 87.4022879,27 L26.5977121,27 C23.5061811,27 21,24.5375661 21,21.5 C21,18.4624339 23.5061811,16 26.5977121,16 L87.4022879,16 C90.4938189,16 93,18.4624339 93,21.5 L93,21.5 Z" id="Path" fill="#E6E6E6"></path>
                <path d="M93,21.5 C92.9916199,24.534149 90.4903411,26.9917662 87.4022879,27 L26.5977121,27 C23.5061811,27 21,24.5375661 21,21.5 C21,18.4624339 23.5061811,16 26.5977121,16 L87.4022879,16 C90.4938189,16 93,18.4624339 93,21.5 L93,21.5 Z" id="Path" fill="#E6E6E6"></path>
                <path d="M71,21.5000411 C70.9915291,24.5341674 68.4631589,26.9917662 65.341659,27 L26.658341,27 C23.5333256,27 21,24.5375845 21,21.5000411 C21,18.4624977 23.5333256,16 26.658341,16 L65.3108233,16 C66.8115154,15.9921113 68.2539982,16.563939 69.3209307,17.5897651 C70.3878631,18.6155912 70.9918441,20.011382 71,21.4700686 L71,21.5000411 Z" id="Path" fill="#C9C9C9"></path>
                <path d="M231,80.5 C230.995793,83.5358548 228.491541,85.9958724 225.401097,86 L164.598898,86 C161.506712,86 159,83.5375661 159,80.5 C159,77.4624339 161.506712,75 164.598898,75 L225.416353,75 C226.89925,75.001986 228.320609,75.5825646 229.367745,76.614015 C230.414881,77.6454654 231.002019,79.0432962 231,80.5 L231,80.5 Z" id="Path" fill="#E6E6E6"></path>
                <path d="M231,80.5 C230.995793,83.5358548 228.491541,85.9958724 225.401097,86 L164.598898,86 C161.506712,86 159,83.5375661 159,80.5 C159,77.4624339 161.506712,75 164.598898,75 L225.416353,75 C226.89925,75.001986 228.320609,75.5825646 229.367745,76.614015 C230.414881,77.6454654 231.002019,79.0432962 231,80.5 L231,80.5 Z" id="Path" fill="#E6E6E6"></path>
                <path d="M193,80.5 C192.99153,83.534149 190.463458,85.9917662 187.342326,86 L164.657674,86 C161.533027,86 159,83.5375661 159,80.5 C159,77.4624339 161.533027,75 164.657674,75 L187.342326,75 C190.466973,75 193,77.4624339 193,80.5 L193,80.5 Z" id="Path" fill="#C9C9C9"></path>
                <path d="M89,86.5 C88.9916138,89.534149 86.4900702,91.9917662 83.4016901,92 L22.5983047,92 C19.5064464,92 17,89.5375661 17,86.5 C17,83.4624339 19.5064464,81 22.5983047,81 L83.4169443,81 C84.8996846,81.001986 86.3208926,81.5825646 87.3679179,82.614015 C88.4149433,83.6454654 89.002019,85.0432962 89,86.5 Z" id="Path" fill="#E6E6E6"></path>
                <path d="M50,86.5 C49.991532,89.534149 47.4640329,91.9917662 44.3436083,92 L21.6563917,92 C18.5324528,92 16,89.5375661 16,86.5 C16,83.4624339 18.5324528,81 21.6563917,81 L44.3436083,81 C45.8437767,81 47.282502,81.5794626 48.3432812,82.6109127 C49.4040604,83.6423628 50,85.0413093 50,86.5 L50,86.5 Z" id="Path" fill="#C9C9C9"></path>
                <path d="M187,101.511217 C187,104.53967 184.496925,106.995874 181.406576,107 L120.612414,107 C117.512764,107 115,104.537566 115,101.5 C115,98.4624339 117.512764,96 120.612414,96 L181.459991,96 C184.540162,96.0287814 187.016863,98.4926491 187,101.511217 L187,101.511217 Z" id="Path" fill="#E6E6E6"></path>
                <path d="M155.962125,101.511217 C155.953801,104.539178 153.469332,106.991783 150.402032,107 L120.571455,107 C117.494425,107 115,104.537566 115,101.5 C115,98.4624339 117.494425,96 120.571455,96 L150.439908,96 C153.510662,96 156,98.4574119 156,101.488783 L155.962125,101.511217 Z" id="Path" fill="#C9C9C9"></path>
                <path d="M181.629087,46 C181.629087,46 196.600651,69.6701051 193.603303,73.1656903 C184.095259,84.2286411 163,59.3370018 163,59.3370018 L181.629087,46 Z" id="Path" fill="#F4A28C"></path>
                <polygon id="Path" fill="#F4A28C" points="158 42.2348993 159.375 46 164 45.9194631 160.419643 40"></polygon>
                <path d="M159.300744,35.4135426 C158.055153,34.646316 156.386584,34.977228 155.573344,36.1527634 C155.374559,36.4524981 155.241426,36.7868026 155.181811,37.1359271 C154.837261,39.1170389 154.743293,41.9852156 157.147309,42 C160.804233,42 161,37.5646752 161,37.5646752 C160.668192,36.706404 160.07748,35.9586063 159.300744,35.4135426 L159.300744,35.4135426 Z" id="Path" fill="#F4A28C"></path>
                <path d="M148.673012,59.1731497 C153.242296,49.1887423 163.560359,43.1568768 174.464227,44.0957916 C179.20279,44.5171609 183.804004,46.532072 185.421678,52.3010002 C189.236946,65.8078002 184.483122,78.7553282 190,89.389156 L167.673049,100 L160.172231,86.5161838 C158.743651,83.9425413 156.314254,82.0805524 153.464989,81.3754789 C150.611168,80.6936268 147.169796,78.9085534 146.292284,74.3117979 C145.529231,70.205363 146.238871,64.5436924 148.673012,59.1731497 Z" id="Path" fill="#68E1FD"></path>
                <path d="M159.045848,38.6620774 C159.045848,38.6620774 159.436532,37.5500416 160.554323,38.2083668 C161.672113,38.866692 160.434947,40.1388609 159.599317,39.987624 C158.763688,39.8363871 159.045848,38.6620774 159.045848,38.6620774 Z" id="Path" fill="#F4A28C"></path>
                <path d="M163,58 C163,58 172.81039,64.2836708 172.257143,75.9674902 C171.703896,87.6513097 187,90.378042 187,90.378042 L168.368831,99 L163.98961,91.3301133 L163,58 Z" id="Path" fill="#000000" opacity="0.08"></path>
                <path d="M169.78179,47.3507343 C168.419442,46.0009298 164.736349,44.1685137 164.482889,37.4722769 C164.435365,36.0546052 163.381921,33.2268025 161.22751,32.035355 C156.055339,29.1773891 152.625706,32.9176294 154.534578,35.0516779 C156.44345,37.1857263 157.473131,38.1283272 157.473131,38.1283272 C157.473131,38.1283272 152.617786,47.9841621 156.19791,51.4378518 C159.405765,54.4994195 175.500484,53.0214213 169.78179,47.3507343 Z" id="Path" fill="#24285B"></path>
                <path d="M190.351149,92 L206.228305,107.184646 C210.558045,111.32969 216.404568,113.460064 222.356753,113.061581 L232.956753,112.361579 L234,115.0462 L219.973276,119.376978 C213.05166,120.95139 205.793685,119.51073 199.976437,115.407739 L181,102.00002 L190.351149,92 Z" id="Path" fill="#F4A28C"></path>
                <polygon id="Path" fill="#F4A28C" points="174 108.069231 193.042399 149 196 148.461538 185.557394 106"></polygon>
                <path d="M193.896194,149.356087 C193.896194,149.356087 194.584347,152.006136 193.366317,153.713603 C192.148286,155.421069 194.226508,157.483935 195.816141,154.447581 C196.318105,153.504566 196.746361,152.5145 197.096105,151.488488 C197.449228,150.572981 198.006115,149.774811 198.713265,149.170661 C198.97586,148.910758 199.068858,148.496182 198.947237,148.127638 C198.616923,146.636503 195.389486,147.053712 195.389486,147.053712 L193.896194,149.356087 Z" id="Path" fill="#68E1FD"></path>
                <path d="M234.288627,114.082839 C234.288627,114.082839 236.782988,114.429085 237.702359,116.167679 C238.62173,117.906274 241.206521,116.7644 239.337634,114.193343 C238.766067,113.39048 238.123019,112.638583 237.415997,111.94643 C236.78447,111.288284 236.344724,110.476836 236.142442,109.596381 C236.032511,109.272787 235.736327,109.044046 235.388859,109.014394 C234.002266,108.763918 233,111.865394 233,111.865394 L234.288627,114.082839 Z" id="Path" fill="#68E1FD"></path>
                <polygon id="Path" fill="#24285B" points="187.81418 83 165 95.6517305 179.010882 129 212 108.726467"></polygon>
                <path d="M166,58.8938924 C165.82478,54.913722 162.411383,51.8269466 158.375309,51.9987936 L158.298136,51.9987936 C156.389273,52.1287296 154.49312,52.4009476 152.625921,52.8131154 C141.412686,55.195197 120.792064,56.8010092 104.006939,48.6654014 C104.006939,48.6654014 98.5662432,45.0808633 95.124328,48.4294764 C91.6824127,51.7780895 96.9147413,55.0810398 100.464699,51.8694153 C100.464699,51.8694153 128.486211,76.8850776 159.339971,68.1482415 C163.447208,66.937183 166.184341,63.1161274 165.969131,58.8938924 L166,58.8938924 Z" id="Path" fill="#F4A28C"></path>
            </g>
        </g>
    </g>
</svg>