<?xml version="1.0" encoding="UTF-8"?>
<svg width="248px" height="153px" viewBox="0 0 248 153" version="1.1" xmlns="http://www.w3.org/2000/svg" xmlns:xlink="http://www.w3.org/1999/xlink">
    <title>6DD9F71D-FE50-4393-BA6E-F3A877B519A4</title>
    <g id="Vocabulary-Explorer" stroke="none" stroke-width="1" fill="none" fill-rule="evenodd">
        <g id="Step-3:-Related-Vocabulary" transform="translate(-404.000000, -713.000000)" fill-rule="nonzero">
            <g id="Word" transform="translate(404.000000, 713.000000)">
                <path d="M195.527624,10.1993581 C221.518541,18.6298507 241.670123,42.2665995 246.882415,71.8164566 C251.28739,96.7315033 243.974505,127.3636 201.265064,141.613094 C157.677763,156.121383 35.7885125,163.101047 13.1522734,122.72879 C-9.48396569,82.356533 -4.71844167,30.4795944 41.7375795,12.1128839 C74.3202824,-0.779888177 144.768522,-6.20677276 195.527624,10.1993581 Z" id="Path" fill="#E6E6E6" opacity="0.3"></path>
                <path d="M214,48.5039136 C213.991345,56.5063045 207.486066,62.9913721 199.458735,63 L159.211153,63 C151.30971,62.8169772 145,56.37902 145,48.5 C145,40.62098 151.30971,34.1830228 159.211153,34 L199.458735,34 C207.490924,34.0043212 214,40.4966791 214,48.5039136 L214,48.5039136 Z" id="Path" fill="#E6E6E6"></path>
                <circle id="Oval" fill="#FFD200" cx="184" cy="48" r="15"></circle>
                <path d="M95,21 C94.9913871,24.3099807 92.4206284,26.9910176 89.2467959,27 L26.7532041,27 C23.5757972,27 21,24.3137085 21,21 C21,17.6862915 23.5757972,15 26.7532041,15 L89.2467959,15 C92.4242028,15 95,17.6862915 95,21 L95,21 Z" id="Path" fill="#E6E6E6"></path>
                <path d="M95,21 C94.9913871,24.3099807 92.4206284,26.9910176 89.2467959,27 L26.7532041,27 C23.5757972,27 21,24.3137085 21,21 C21,17.6862915 23.5757972,15 26.7532041,15 L89.2467959,15 C92.4242028,15 95,17.6862915 95,21 L95,21 Z" id="Path" fill="#E6E6E6"></path>
                <path d="M72,21.0000449 C71.9913597,24.3100009 69.4124221,26.9910177 66.2284921,27 L26.7715079,27 C23.5839921,27 21,24.3137286 21,21.0000449 C21,17.6863611 23.5839921,15 26.7715079,15 L66.1970398,15 C67.7277457,14.9913942 69.1990782,15.6152061 70.2873493,16.7342892 C71.3756204,17.8533722 71.991681,19.3760531 72,20.9673475 L72,21.0000449 Z" id="Path" fill="#C9C9C9"></path>
                <path d="M205,78.0040872 C204.995654,81.3145939 202.411751,83.9958994 199.225847,83.9958964 L167.987239,83.9958964 C165.874925,84.0769541 163.88881,82.952202 162.80949,81.0636977 C161.73017,79.1751934 161.73017,76.8248066 162.80949,74.9363023 C163.88881,73.047798 165.874925,71.9230459 167.987239,72.0041036 L199.241581,72.0041036 C200.770894,72.0062701 202.236742,72.6396269 203.316654,73.7648424 C204.396567,74.8900579 205.002082,76.4149601 205,78.0040872 L205,78.0040872 Z" id="Path" fill="#E6E6E6"></path>
                <path d="M197,78.0040872 C196.995649,81.3145939 194.40531,83.9958994 191.211471,83.9958964 L168.002151,83.9958964 C165.884576,84.0769541 163.893514,82.952202 162.811506,81.0636977 C161.729498,79.1751934 161.729498,76.8248066 162.811506,74.9363023 C163.893514,73.047798 165.884576,71.9230459 168.002151,72.0041036 L191.211471,72.0041036 C194.408387,72.0041036 197,74.6903878 197,78.0040872 L197,78.0040872 Z" id="Path" fill="#C9C9C9"></path>
                <path d="M177,95.9959128 C176.995663,99.3077453 174.410661,101.991394 171.220565,101.995896 L139.992721,101.995896 C137.878473,102.076954 135.89054,100.952202 134.810231,99.0636977 C133.729923,97.1751934 133.729923,94.8248066 134.810231,92.9363023 C135.89054,91.047798 137.878473,89.9230459 139.992721,90.0041036 L171.252061,90.0041036 C174.430377,90.0176083 177,92.6962812 177,95.9959128 L177,95.9959128 Z" id="Path" fill="#E6E6E6"></path>
                <path d="M168,95.9959128 C167.995657,99.3077453 165.40717,101.991394 162.212775,101.995896 L139.000799,101.995896 C136.883701,102.076954 134.893088,100.952202 133.811323,99.0636977 C132.729559,97.1751934 132.729559,94.8248066 133.811323,92.9363023 C134.893088,91.047798 136.883701,89.9230459 139.000799,90.0041036 L162.212775,90.0041036 C165.405895,90.0041006 167.99565,92.6854061 168,95.9959128 L168,95.9959128 Z" id="Path" fill="#C9C9C9"></path>
                <path d="M155,21 C154.991314,24.3099807 152.398824,26.9910176 149.198162,27 L117.801838,27 C114.597571,27 112,24.3137085 112,21 C112,17.6862915 114.597571,15 117.801838,15 L149.213971,15 C152.412062,15.0090118 155,17.6926656 155,21 L155,21 Z" id="Path" fill="#E6E6E6"></path>
                <path d="M147,21 C147,22.591301 146.386388,24.1174238 145.294162,25.2426415 C144.201936,26.3678593 142.72056,27 141.175919,27 L117.824075,27 C114.607527,27 112,24.3137098 112,21 C112,17.6862958 114.607527,15 117.824075,15 L141.175919,15 C142.721206,14.9978323 144.203808,15.6292751 145.296492,16.7549643 C146.389175,17.8806535 147.002104,19.4080393 147,21 L147,21 Z" id="Path" fill="#C9C9C9"></path>
                <path d="M126,40 C125.995646,43.3118416 123.400623,45.9954972 120.198162,46 L88.8018382,46 C85.5975715,46 83,43.3137085 83,40 C83,36.6862915 85.5975715,34 88.8018382,34 L120.213971,34 C123.410257,34.0134887 125.995678,36.6945203 126,40 L126,40 Z" id="Path" fill="#E6E6E6"></path>
                <path d="M118,40 C118,43.3137085 115.392472,46 112.175924,46 L88.8240762,46 C85.6075277,46 83,43.3137085 83,40 C83,36.6862915 85.6075277,34 88.8240762,34 L112.175924,34 C113.720565,34 115.201941,34.632141 116.294168,35.7573593 C117.386394,36.8825776 118,38.4087011 118,40 L118,40 Z" id="Path" fill="#C9C9C9"></path>
                <path d="M134,59 C133.995632,62.3118416 131.395737,64.9954972 128.187262,65 L88.8127323,65 C85.6024489,65 83,62.3137085 83,59 C83,55.6862915 85.6024489,53 88.8127323,53 L128.203101,53 C129.742633,53.0021665 131.218277,53.635525 132.305406,54.7607436 C133.392534,55.8859622 134.002096,57.4108686 134,59 L134,59 Z" id="Path" fill="#E6E6E6"></path>
                <path d="M125,59 C124.991472,62.3099807 122.446172,64.9910176 119.303769,65 L88.6962304,65 C85.5502892,65 83,62.3137084 83,59 C83,55.6862916 85.5502892,53 88.6962304,53 L119.303769,53 C122.449711,53 125,55.6862915 125,59 L125,59 Z" id="Path" fill="#C9C9C9"></path>
                <path d="M137,78.00409 C136.995678,81.3168624 134.425735,84 131.257043,84 L84.5310115,84 C81.443845,83.8808083 79,81.2297435 79,78 C79,74.7702565 81.443845,72.1191917 84.5310115,72 L131.272691,72 C132.793742,72.002168 134.251671,72.6359582 135.325749,73.7619439 C136.399827,74.8879295 137.002071,76.4138753 137,78.00409 Z" id="Path" fill="#E6E6E6"></path>
                <path d="M121,78.00409 C120.995697,81.3168624 118.433839,84 115.275116,84 L84.5136111,84 C81.4361567,83.8808083 79,81.2297435 79,78 C79,74.7702565 81.4361567,72.1191917 84.5136111,72 L115.275116,72 C118.436882,72 121,74.6881226 121,78.00409 L121,78.00409 Z" id="Path" fill="#C9C9C9"></path>
                <path d="M128,96 C128,99.3105188 125.406769,101.99549 122.205001,102 L90.8029049,102 C87.598049,102 85,99.3137085 85,96 C85,92.6862915 87.598049,90 90.8029049,90 L122.220813,90 C125.416402,90.0135047 128,92.6958448 128,96 L128,96 Z" id="Path" fill="#E6E6E6"></path>
                <path d="M112,96 C111.991302,99.3099807 109.395153,101.991018 106.189974,102 L90.8100264,102 C87.6012374,102 85,99.3137085 85,96 C85,92.6862915 87.6012374,90 90.8100264,90 L106.189974,90 C109.398763,90 112,92.6862915 112,96 L112,96 Z" id="Path" fill="#C9C9C9"></path>
                <path d="M64,40 C63.9956459,43.3118416 61.4006233,45.9954972 58.1981618,46 L26.8018382,46 C23.5975715,46 21,43.3137085 21,40 C21,36.6862915 23.5975715,34 26.8018382,34 L58.2139706,34 C61.4102566,34.0134887 63.9956779,36.6945203 64,40 L64,40 Z" id="Path" fill="#E6E6E6"></path>
                <path d="M64,40 C63.9956459,43.3118416 61.4006233,45.9954972 58.1981618,46 L26.8018382,46 C23.5975715,46 21,43.3137085 21,40 C21,36.6862915 23.5975715,34 26.8018382,34 L58.2139706,34 C61.4102566,34.0134887 63.9956779,36.6945203 64,40 L64,40 Z" id="Path" fill="#E6E6E6"></path>
                <path d="M56,40 C56,43.3105188 53.3973079,45.9954898 50.1838585,46 L26.8240762,46 C23.6075277,46 21,43.3137085 21,40 C21,36.6862915 23.6075277,34 26.8240762,34 L50.1838585,34 C53.3973079,34.0045102 56,36.6894812 56,40 L56,40 Z" id="Path" fill="#C9C9C9"></path>
                <path d="M72,59 C71.9912926,62.3099807 69.3939343,64.9910176 66.1872623,65 L26.8127325,65 C24.7360432,65 22.8171032,63.8564066 21.7787585,62 C20.7404138,60.1435936 20.7404138,57.8564064 21.7787585,56 C22.8171032,54.1435934 24.7360432,53 26.8127325,53 L66.2031008,53 C67.7426334,53.0021665 69.2182768,53.635525 70.3054056,54.7607436 C71.3925343,55.8859622 72.0020963,57.4108686 72,59 L72,59 Z" id="Path" fill="#E6E6E6"></path>
                <path d="M72,59 C71.9912926,62.3099807 69.3939343,64.9910176 66.1872623,65 L26.8127325,65 C24.7360432,65 22.8171032,63.8564066 21.7787585,62 C20.7404138,60.1435936 20.7404138,57.8564064 21.7787585,56 C22.8171032,54.1435934 24.7360432,53 26.8127325,53 L66.2031008,53 C67.7426334,53.0021665 69.2182768,53.635525 70.3054056,54.7607436 C71.3925343,55.8859622 72.0020963,57.4108686 72,59 L72,59 Z" id="Path" fill="#E6E6E6"></path>
                <path d="M64,78.0040872 C63.9956549,81.3145939 61.4122246,83.9958994 58.2269035,83.9958964 L26.9861435,83.9958964 C24.8742162,84.0769541 22.8884644,82.952202 21.8093419,81.0636977 C20.7302194,79.1751934 20.7302194,76.8248066 21.8093419,74.9363023 C22.8884644,73.047798 24.8742162,71.9230459 26.9861435,72.0041036 L58.242634,72.0041036 C59.7716674,72.0062701 61.2372473,72.6396269 62.3169622,73.7648424 C63.3966771,74.8900579 64.002082,76.4149601 64,78.0040872 L64,78.0040872 Z" id="Path" fill="#E6E6E6"></path>
                <path d="M64,78.0040872 C63.9956549,81.3145939 61.4122246,83.9958994 58.2269035,83.9958964 L26.9861435,83.9958964 C24.8742162,84.0769541 22.8884644,82.952202 21.8093419,81.0636977 C20.7302194,79.1751934 20.7302194,76.8248066 21.8093419,74.9363023 C22.8884644,73.047798 24.8742162,71.9230459 26.9861435,72.0041036 L58.242634,72.0041036 C59.7716674,72.0062701 61.2372473,72.6396269 62.3169622,73.7648424 C63.3966771,74.8900579 64.002082,76.4149601 64,78.0040872 L64,78.0040872 Z" id="Path" fill="#E6E6E6"></path>
                <path d="M40,78.0040872 C40,81.313272 37.4119131,83.9958964 34.2193528,83.9958964 L11.0021502,83.9958964 C8.88457564,84.0769541 6.89351412,82.952202 5.81150605,81.0636977 C4.72949798,79.1751934 4.72949798,76.8248066 5.81150605,74.9363023 C6.89351412,73.047798 8.88457564,71.9230459 11.0021502,72.0041036 L34.2193528,72.0041036 C35.7538417,72.0041022 37.225367,72.6365022 38.3096746,73.761953 C39.3939822,74.8874038 40.002088,76.4135447 40,78.0040872 Z" id="Path" fill="#C9C9C9"></path>
                <path d="M64,95.9754768 C64.0043676,99.2950304 61.4080665,101.990983 58.198157,102 L26.8018375,102 C23.5975711,102 21,99.3137085 21,96 C21,92.6862915 23.5975711,90 26.8018375,90 L58.2139658,90 C61.4028241,90.0089583 63.9869727,92.677718 64,95.9754768 L64,95.9754768 Z" id="Path" fill="#E6E6E6"></path>
                <path d="M64,95.9754768 C64.0043676,99.2950304 61.4080665,101.990983 58.198157,102 L26.8018375,102 C23.5975711,102 21,99.3137085 21,96 C21,92.6862915 23.5975711,90 26.8018375,90 L58.2139658,90 C61.4028241,90.0089583 63.9869727,92.677718 64,95.9754768 L64,95.9754768 Z" id="Path" fill="#E6E6E6"></path>
                <path d="M56,95.9754768 C56.0062772,97.5696049 55.3965549,99.1007946 54.3053607,100.231086 C53.2141665,101.361377 51.7312145,101.997841 50.1838179,102 L26.8240681,102 C23.6075241,102 21,99.3137085 21,96 C21,92.6862915 23.6075241,90 26.8240681,90 L50.1838179,90 C53.3972627,90.0045102 56,92.6894812 56,96 L56,95.9754768 Z" id="Path" fill="#C9C9C9"></path>
                <path d="M25.9110311,142.365729 C25.9110311,142.365729 22.5628583,143.114567 21.9939939,145.772944 C21.4251296,148.431321 18.4995417,148.813229 18.0363236,146.357038 C17.5731055,143.900848 21.6933085,138 21.6933085,138 L27,138.748839 L25.9110311,142.365729 Z" id="Path" fill="#68E1FD"></path>
                <path d="M165.376843,47 L152.682751,60.2471123 C144.780217,68.5271437 132.572463,70.9622656 122.122899,66.3429892 L108.104547,60.1053477 L94,84.4100971 L114.373234,87.481663 C132.29959,90.1799544 150.157698,82.1943615 160.165996,67.0045572 L170,52.095649 C168.411933,50.45223 166.87088,48.7536803 165.376843,47 Z" id="Path" fill="#68E1FD"></path>
                <path d="M165.376843,47 L152.682751,60.2471123 C144.780217,68.5271437 132.572463,70.9622656 122.122899,66.3429892 L108.104547,60.1053477 L94,84.4100971 L114.373234,87.481663 C132.29959,90.1799544 150.157698,82.1943615 160.165996,67.0045572 L170,52.095649 C168.411933,50.45223 166.87088,48.7536803 165.376843,47 Z" id="Path" fill="#FFFFFF" opacity="0.46"></path>
                <path d="M68,138.858808 C68,138.858808 65.4487515,141.045986 66.2750993,143.756525 C67.1014471,146.467064 64.7507684,148.154316 63.1141184,146.060874 C61.4774684,143.967432 62.1273147,136.687252 62.1273147,136.687252 L67.141561,135 L68,138.858808 Z" id="Path" fill="#68E1FD"></path>
                <path d="M97,112.755046 L74.6223846,128.87775 C63.0860955,137.186964 49.4147664,141.945669 35.2591609,142.57927 L26,143 L26,137.895668 L40.9341304,132.799274 C46.6738488,130.855764 51.8791162,127.573148 56.1276431,123.217736 L70.9202923,108 L97,112.755046 Z" id="Path" fill="#24285B"></path>
                <path d="M97,112.755046 L74.6223846,128.87775 C63.0860955,137.186964 49.4147664,141.945669 35.2591609,142.57927 L26,143 L26,137.895668 L40.9341304,132.799274 C46.6738488,130.855764 51.8791162,127.573148 56.1276431,123.217736 L70.9202923,108 L97,112.755046 Z" id="Path" fill="#000000" opacity="0.08"></path>
                <path d="M111.247221,42.8136062 C112.078511,44.7290123 112.664971,46.7577355 112.990478,48.8440051 C113.039203,49.3504271 112.89959,49.8570031 112.602424,50.2520234 C112.305259,50.6470438 111.87495,50.8980638 111.406388,50.9497286 C109.901825,51.2034749 108.399024,50.4825156 107.563643,49.1061964 L105.509632,46.3777686 C104.780565,45.1637243 104.83826,43.5848004 105.65364,42.4367063 C106.99519,40.249048 110.428648,40.7078827 111.247221,42.8136062 Z" id="Path" fill="#F4A28C"></path>
                <polygon id="Path" fill="#F4A28C" points="106.821901 46 104 57.9826087 111 59 110.241877 49.8757764"></polygon>
                <path d="M111.131749,42.9392954 C110.131536,43.3805491 109.083552,43.6914175 108.011254,43.8649429 C108.948365,44.5940581 109.386083,45.8357963 109.126793,47.0295497 C108.885623,48.1974183 107.890771,49.0228554 106.752504,48.9995174 L105.245019,44.5532449 C104.768757,43.2707447 104.997075,41.8176785 105.840476,40.7636283 C106.204114,40.3213194 106.591674,39.9013163 107.001239,39.5056971 C108.033867,38.524669 110.121734,38.7145454 110.905626,37.4012336 C111.161919,36.9941299 111.681871,36.8779363 112.073927,37.1401535 C112.189289,37.2244807 112.284694,37.3354476 112.352812,37.4645257 C113.008568,38.7303684 113.521113,40.9455932 112.043777,42.3538432 C111.772738,42.6006382 111.464537,42.7984797 111.131749,42.9392954 L111.131749,42.9392954 Z" id="Path" fill="#24285B"></path>
                <path d="M109,46.8637078 C109,46.8637078 108.462946,45.6657426 107.454938,46.0915254 C106.446929,46.5173082 107.223591,48.2565227 108.710817,47.9678564 L109,46.8637078 Z" id="Path" fill="#F4A28C"></path>
                <path d="M112,45 L113.698542,46.1005917 C114.000061,46.299089 114.089301,46.6869861 113.902738,46.9881657 C113.851917,47.0678852 113.781907,47.134834 113.698542,47.183432 L112.259886,48 L112,45 Z" id="Path" fill="#F4A28C"></path>
                <path d="M110.702961,50.9606299 C109.710454,50.8738264 108.770507,50.5395519 108.001764,50 C108.001764,50 107.825397,52.2047244 111,54 L110.702961,50.9606299 Z" id="Path" fill="#CE8172" opacity="0.31"></path>
                <path d="M111.067406,59.1848265 L104.526217,58.2088017 C104.526217,58.2088017 71.166938,48.8027564 66.3102426,68.8112646 C61.4535472,88.8197729 62.0202929,102.043335 62.0202929,102.043335 L84.5012038,113 C84.5012038,113 146.48901,87.7650364 111.067406,59.1848265 Z" id="Path" fill="#68E1FD"></path>
                <path d="M96.7910491,71.8272843 C96.7910491,71.8272843 100.433361,80.8303848 86.7095086,83.7634507 C72.985656,86.6965165 72.9935569,95.848623 81.9689723,96.405435 C90.9443877,96.9622469 104.241592,92.1156301 103.996664,102.561736 C103.996664,102.561736 93.5753853,109.674813 84.7105824,113 L62.1377287,102.083349 L62.1377287,100.69524 L61,81.2303483 L72.7170256,70 L96.7910491,71.8272843 Z" id="Path" fill="#000000" opacity="0.08"></path>
                <path d="M98.3097267,65.7521636 C97.3522434,59.5925067 91.6126563,55.3087614 85.3671032,56.0924263 C76.8092836,57.047529 63.8666601,60.8213491 57.8424571,74.4102078 C48.42964,95.6321225 54.2106785,108.871553 99,95.8107189 L97.7841778,90.8410792 C97.7841778,90.8410792 67.5298147,94.4130077 69.341782,84.9939874 C70.8556768,77.0347988 100.255042,79.9932874 98.3097267,65.7521636 Z" id="Path" fill="#68E1FD"></path>
                <path d="M98.3097267,65.7521636 C97.3522434,59.5925067 91.6126563,55.3087614 85.3671032,56.0924263 C76.8092836,57.047529 63.8666601,60.8213491 57.8424571,74.4102078 C48.42964,95.6321225 54.2106785,108.871553 99,95.8107189 L97.7841778,90.8410792 C97.7841778,90.8410792 67.5298147,94.4130077 69.341782,84.9939874 C70.8556768,77.0347988 100.255042,79.9932874 98.3097267,65.7521636 Z" id="Path" fill="#FFFFFF" opacity="0.46"></path>
                <path d="M98,90.7336585 C98,90.7336585 101.971571,86.43007 104.718824,87.0636767 C107.466076,87.6972835 105.875954,93.9592927 99.1645961,96 L98,90.7336585 Z" id="Path" fill="#F4A28C"></path>
                <path d="M62.708091,102 C62.708091,102 105.837316,107.467626 103.939133,118.301336 C102.040949,129.135046 67.8425226,140 67.8425226,140 L65.1352769,134.618294 L87.3455832,118.637205 C87.3455832,118.637205 49.7786587,127.588489 62.708091,102 Z" id="Path" fill="#24285B"></path>
                <path d="M169.796172,53 C169.796172,53 173.16579,47.695554 172.99362,45.9841808 C172.82145,44.2728076 170.870187,46.3572764 170.870187,46.3572764 C170.870187,46.3572764 173.132996,42.6912067 172.001591,40.4526332 C170.870187,38.2140597 167.77932,44.8567833 165,47.7523295 L169.796172,53 Z" id="Path" fill="#F4A28C"></path>
            </g>
        </g>
    </g>
</svg>